<?xml version="1.0" encoding="utf-8"?>
<!-- Generator: Adobe Illustrator 24.2.3, SVG Export Plug-In . SVG Version: 6.00 Build 0)  -->
<svg version="1.1" id="Calque_1" xmlns="http://www.w3.org/2000/svg" xmlns:xlink="http://www.w3.org/1999/xlink" x="0px" y="0px"
	 viewBox="0 0 595.28 841.89" style="enable-background:new 0 0 595.28 841.89;" xml:space="preserve">
<style type="text/css">
	.st0{fill:#FEFEFE;}
	.st1{fill:#017601;}
	.st2{fill:#037502;}
	.st3{fill:#007500;}
	.st4{fill:#FE2A22;}
	.st5{fill:#FD2A22;}
	.st6{fill:#FCCD85;}
	.st7{fill:#017502;}
	.st8{fill:#FCCE87;}
	.st9{fill:#FC2B21;}
	.st10{fill:#FCF9F9;}
	.st11{fill:#FBFBF9;}
	.st12{fill:#FBCE8B;}
	.st13{fill:#047404;}
	.st14{fill:#F92D22;}
	.st15{fill:#FA2E23;}
	.st16{fill:#FBD091;}
	.st17{fill:#057405;}
	.st18{fill:#FC2C1E;}
	.st19{fill:#FB2C23;}
	.st20{fill:#F92F22;}
	.st21{fill:#FACF8F;}
	.st22{fill:#FDFBF5;}
	.st23{fill:#FAF9F7;}
	.st24{fill:#DC302F;}
	.st25{fill:#FAD39C;}
	.st26{fill:#F8FAF6;}
	.st27{fill:#087408;}
	.st28{fill:#FBF9F5;}
	.st29{fill:#F92D29;}
	.st30{fill:#FBFCF8;}
	.st31{fill:#F63121;}
	.st32{fill:#DDEEE2;}
	.st33{fill:#FDFBE5;}
	.st34{fill:#F9FEF8;}
	.st35{fill:#FBF6E3;}
	.st36{fill:#FCFCF4;}
	.st37{fill:#FCFAF2;}
	.st38{fill:#F73125;}
	.st39{fill:#F53230;}
	.st40{fill:#ED352C;}
	.st41{fill:#EB5E52;}
	.st42{fill:#177917;}
	.st43{fill:#1D6E18;}
	.st44{fill:#F0F9EF;}
	.st45{fill:#F72F1C;}
	.st46{fill:#F7FEF6;}
	.st47{fill:#F1352D;}
	.st48{fill:#EEF8EA;}
	.st49{fill:#F63328;}
	.st50{fill:#F7D79E;}
	.st51{fill:#F0F9F0;}
	.st52{fill:#147113;}
	.st53{fill:#F8EFDB;}
	.st54{fill:#90E391;}
	.st55{fill:#F8D9A9;}
	.st56{fill:#F2FEFE;}
	.st57{fill:#F6FEF5;}
	.st58{fill:#F5D39C;}
	.st59{fill:#13740C;}
	.st60{fill:#EA4A38;}
	.st61{fill:#F7D39F;}
	.st62{fill:#0C750D;}
	.st63{fill:#F53431;}
	.st64{fill:#F3D8AE;}
	.st65{fill:#FCF2D3;}
	.st66{fill:#F04140;}
	.st67{fill:#F13B35;}
	.st68{fill:#E3F2E4;}
	.st69{fill:#F5D9AF;}
	.st70{fill:#FBFDFB;}
	.st71{fill:#FBFCFA;}
	.st72{fill:#F9FBF9;}
	.st73{fill:#F7FBF7;}
	.st74{fill:#F8FBF7;}
	.st75{fill:#F5FAF5;}
	.st76{fill:#F6FBF5;}
	.st77{fill:#EFF8F0;}
	.st78{fill:#F3FAF2;}
	.st79{fill:#EEF9EE;}
	.st80{fill:#077407;}
	.st81{fill:#ECF8EC;}
	.st82{fill:#EAF7E9;}
	.st83{fill:#177516;}
	.st84{fill:#077305;}
	.st85{fill:#067407;}
	.st86{fill:#077105;}
	.st87{fill:#077104;}
	.st88{fill:#057108;}
	.st89{fill:#106F0D;}
	.st90{fill:#077009;}
	.st91{fill:#096E0C;}
	.st92{fill:#117513;}
	.st93{fill:#F2F9F1;}
	.st94{fill:#096F06;}
	.st95{fill:#FC282A;}
	.st96{fill:#F73018;}
	.st97{fill:#F92D20;}
	.st98{fill:#FE262A;}
	.st99{fill:#FE262D;}
	.st100{fill:#FB2E12;}
	.st101{fill:#FDF8F8;}
	.st102{fill:#FC2B27;}
	.st103{fill:#FADED8;}
	.st104{fill:#F72C2C;}
	.st105{fill:#FDFDFD;}
	.st106{fill:#F63030;}
	.st107{fill:#FA2F12;}
	.st108{fill:#F82F2E;}
	.st109{fill:#FD2D16;}
	.st110{fill:#F22F2D;}
	.st111{fill:#0A760A;}
	.st112{fill:#0E740E;}
	.st113{fill:#F7322C;}
	.st114{fill:#FE272A;}
	.st115{fill:#FA2E1A;}
	.st116{fill:#F62F21;}
	.st117{fill:#FE2430;}
	.st118{fill:#FDB854;}
	.st119{fill:#FDE1B7;}
	.st120{fill:#FBB959;}
	.st121{fill:#FDB952;}
	.st122{fill:#FCDEAB;}
	.st123{fill:#FABA5C;}
	.st124{fill:#FDE1B0;}
	.st125{fill:#FCE0AD;}
	.st126{fill:#F7CE8F;}
	.st127{fill:#F5BA5F;}
	.st128{fill:#FABD63;}
	.st129{fill:#F9D198;}
	.st130{fill:#FCC169;}
	.st131{fill:#F1DBB0;}
	.st132{fill:#FACF96;}
	.st133{fill:#FDDDA3;}
	.st134{fill:#FEE1B6;}
	.st135{fill:#FCB855;}
	.st136{fill:#FEE0AD;}
	.st137{fill:#FCBA5D;}
	.st138{fill:#FABC61;}
	.st139{fill:#FCC875;}
	.st140{fill:#FCBA63;}
	.st141{fill:#FDDEAB;}
	.st142{fill:#178417;}
	.st143{fill:#FEC473;}
	.st144{fill:#FEC472;}
	.st145{fill:#FBB95A;}
	.st146{fill:#FABD60;}
	.st147{fill:#FEC26A;}
	.st148{fill:#FEC066;}
	.st149{fill:#FCBC60;}
	.st150{fill:#FCBC5E;}
	.st151{fill:#F8CD8D;}
	.st152{fill:#FACF86;}
</style>
<g>
	<path class="st0" d="M-97.98,544.19c0-132.94,0.02-265.88-0.09-398.82c0-3.42,0.65-4.09,3.97-4.09c277.98,0.1,555.97,0.1,833.95,0
		c3.32,0,3.97,0.67,3.97,4.09c-0.11,131.44-0.11,262.88,0,394.32c0,3.75-0.82,4.59-4.45,4.59
		C460.24,544.18,181.13,544.19-97.98,544.19z"/>
	<path class="st1" d="M246.04,283.2c-0.58,0.04-1.15,0.07-1.73,0.11c-0.85,0.8-2.2,0.74-2.91,1.78c-0.97,0.76-1.93,1.53-2.9,2.29
		c-1.22,0.94-2.68,1.35-4.1,1.83c-5.33,0.99-8.78-1.89-11.76-5.93c-1.49-2.02-1.35-3.55,0.69-4.96c0.8-0.55,1.47-1.34,2.33-1.75
		c7.21-3.44,12.94-9.51,20.49-12.28c6.18-2.27,9.68-6.92,11.75-13.03c0.62-1.45,1.35-2.95-1.2-3.09c-5.03-2.2-9.63,0.77-14.44,1.21
		c-1.66,0.15-3.82,1.04-4.88-0.87c-0.88-1.59,0.89-2.97,1.36-4.48c1.32-4.26,4.8-5.78,8.29-6.55c4.96-1.1,8.8-4.11,12.51-7.1
		c3.51-2.84,6.93-5.72,10.76-8.11c1.86-1.17,5.2-1.63,1.43-5.58c-2.45-2.56,0.75-6.5,3.29-8.83c2.25-2.07,4.94-3.62,7.41-5.44
		c1.64-1.21,3.72-2.25,0.87-4.56c-1.22-0.99-0.71-2.4,0.44-3.41c4.97-4.38,9.83-8.91,14.96-13.1c3.7-3.02,7.05-6.29,9.67-10.32
		c0.9-1.39,1.83-2.62,3.35-0.92c5.33,5.98,12.69,9.44,17.97,15.5c2.31,2.65,5.54,4.07,8.8,4.93c10.68,2.82,19.91,8.58,29,14.68
		c1.68,1.13,3.17,2.74,3.15,4.72c-0.02,1.89-2.18,2.16-3.65,2.75c-1.04,0.42-2.11,0.73-3.4,1.17c2.08,2.2,4.98,2.24,7.3,3.51
		c1.7,0.93,3.66,1.34,5.34,2.3c2.25,1.28,5.31,3.04,4.44,5.78c-1.05,3.32-4.16,0.49-6.34,0.56c-1.24,0.04-2.5-0.47-3.75-0.73
		c-2.89-0.99-6.17,0.15-8.91-1.69c-1.89-0.04-3.3-1.08-4.61-2.34c-0.86-0.48-1.84-0.55-2.75-0.89c-3.37-1.26-3.14,0.66-2.33,2.97
		c0.35,1.4,1.22,2.12,2.62,2.14c2.04,0.85,3.67,2.25,5.1,3.93c10,7.25,21.17,12.27,32.05,17.81c3.74,1.91,7.05,4.47,10.3,7.09
		c1.3,1.05,3.28,2.48,2.2,4.47c-0.92,1.71-3.24,1.61-4.88,1.23c-4.79-1.13-9.62-0.3-14.41-0.79c-2.66,0.87-5.65-2.13-8.13,0.74
		c-4.75,0.72-8.92,3.53-13.74,4.03c-2.62,0.27-5.21,0.8-6.56-2.44c-0.19-0.45-0.5-0.86-0.93-1.11c-5.34-3.08-5.38-3.2-3.38-9.64
		c-1.14-0.94-1.73,0.02-2.35,0.75c-0.66,0.78-1.87,1.8-2.34,0.96c-1.84-3.31-6.29-3.36-7.78-6.94c-0.03-0.47,0.03-0.92,0.17-1.37
		c0.64-1.84,2.89-1.73,3.74-3.29c0.4-1.96-1.29-4.26,0.91-5.92c0.99-0.69,1.99-0.72,2.98-0.13c0.23-0.06,0.38,0.57,0.48,0.31
		c0.23-0.6,0.2,0.31-0.33-0.15c-1.53-1.14-2.72-0.53-3.82,0.66c-2.54-0.7-5.08-1.48-7.77-1.04c-6.97-1.25-13.94-2.45-21.06-2.16
		c-1.12,0.05-2.26-0.33-3.36-0.01c-1.44,0.41-2.88,1.14-3.13,2.76c-0.29,1.82,1.47,1.91,2.57,2.38c1.78,0.76,3.76,1.13,4.66,3.22
		c0.24,0.66,0.35,1.35,0.44,2.04c7.68,5.37,6.03,13.37,5.39,20.96c-0.2,2.42-0.6,4.77-0.22,7.2c0.47,3.01,1.86,6.51-3.08,7.02
		c-3.59,7.4-9.08,4.24-14.38,2.9c-3.28-0.83-6.73-0.48-10.08-0.23c-4,0.3-2.11,4.18-3.27,6.23c-1.74,4.76-6.52,2.9-9.62,4.69
		c-0.4,0.23-0.82,0.39-1.25,0.52c-1.14,0.25-2.22,0.18-3.13-0.58c-0.17-0.18-0.35-0.35-0.5-0.5c0.16,0.15,0.33,0.33,0.54,0.59
		c0.58,0.76,0.78,1.61,0.86,2.51c0.05,0.5,0.04,0.99,0.02,1.48c-0.09,1-0.29,1.96-0.96,2.73c-4.84-2.78-9.99-2.35-15.26-1.89
		c-3.65,0.31-7.34,0.2-11.03-0.72c-4.31-1.07-6.65,0.99-6.41,5.43c0.4,7.28,1.25,14.51,0.63,21.84c-0.2,2.38,0.4,4.93,4.42,3.61
		c2.21-0.73,5.87-1.49,7.07,2.62c-10.69,5.32-21.85,7.26-33.67,5.39c-4.69-0.74-3.68-4.01-3.8-7.06c-0.12-3.02,0.63-4.3,4.04-4.31
		c2.48-0.01,4.95-1.87,7.43-2.9c0.51-0.64,1.12-0.62,1.78-0.29c0.71,1.12-0.07,2.47,0.85,4.78c0.15-2.58-0.49-4.38,1.02-5.45
		c0.32-0.31,0.67-0.57,1.04-0.79c1.11-0.51,2.12-1.22,3.24-1.67c0.19-0.22,0.95,0.21,0.65-0.61c-0.4-0.35-0.82-0.63-1.25-0.93
		c-1.78-1.23-3.79-0.79-5.71-0.87c-0.93,0.02-1.87,0.04-2.78-0.11c-3.75-0.62-4-1.44-1.53-4.65c-0.61-0.35-0.98,0.13-1.41,0.39
		c-0.54,0.41-1.17,0.9-1.19,1.52c-0.17,4.9-2.73,5.69-6.71,4.37c-2.66-0.89-3.36,0.9-3.73,3.06c-1.62-0.03-3.25-0.05-4.87-0.08
		c-1.28-0.39-1.73-1.34-1.68-2.61c1-1.4-1.25-2.48-0.4-3.84c0.09-0.27,0.35-0.29,0.62-0.27c-0.14-0.3-0.3-0.27-0.5,0.11
		c-0.61,0.72-0.34,2.06-1.56,2.32c-0.43,0.04-0.8-0.1-1.09-0.44c-0.24-1.96,0.04-3.58,2.27-4.14c5.13-1.28,9.2-4.88,14.01-6.89
		c0.44,0.49-0.1-0.14,0.34,0.36c-0.12-0.12-0.23-0.24-0.35-0.35c0.76-1,1.78-1.54,2.98-1.75c0.23-0.22,0.93,1.05,0.82-0.27
		c3.23-3.19,6.92-5.71,10.77-8.01c1.02-1.27,2.69-1.12,3.92-1.91l-0.01,0.01c0.55-0.61,1.15-0.64,1.81-0.2
		c0.82,1.41,0.03,2.35-1.1,3.53c1.45-1.01,2-1.98,1.18-3.39c-0.47-1.88,1.49-1.12,1.99-1.95l-0.01,0.01c0.9-1.4,2.67-1.09,3.79-2.06
		l0.04-0.02C248.07,285.52,249.57,283.59,246.04,283.2z"/>
	<path class="st2" d="M325.66,387.54c-129.44,0-258.88,0-388.32,0c-2.42,0-4.85,0.01-7.27-0.03c-2.25-0.03-3.81-1.05-3.75-3.54
		c0.06-2.43,1.66-3.49,3.85-3.59c1.94-0.09,3.88-0.04,5.82-0.04c260.82,0,521.64,0,782.45,0c1.29,0,2.6-0.09,3.87,0.08
		c1.99,0.26,3.33,1.43,3.27,3.62c-0.06,2.12-1.21,3.39-3.37,3.44c-2.1,0.05-4.2,0.06-6.3,0.06
		C585.84,387.54,455.75,387.54,325.66,387.54z"/>
	<path class="st3" d="M289.9,287.31c0-0.83,0.11-1.68-0.02-2.49c-0.66-4.33,1-5.41,5.26-5.72c6.06-0.44,11.53,2.16,17.38,2.18
		c1.85,0.01,4.48,0.74,3.21-3.1c-0.27-0.82,1.4-2.5,2.16-2.17c4.61,2.02,2.95-3.08,2.83-3.34c-2.55-5.36,0.89-10.59,0.16-15.86
		c-0.37-2.69,0.68-5.43-1.26-8.11c-1.11-1.53-1.25-3.42-3.82-3.19c-1.34,0.12-1.17-1.2-0.71-2.2c2.93-2.2,5.44-0.15,8.07,0.81
		c3.96,2.88,7.2,1.21,10.26-1.72c2.56-0.37,5.23-1.15,6.88,1.91c0.05,2.06,1.34,2.83,3.08,3.18c2.31,0.46,4.01,1.66,4.35,5.75
		c1.61-4.08,2.93-6.77,6.06-3.46c0.92,0.97,1.34,2.23-0.06,2.84c-2.93,1.29-1.12,3.81-1.61,5.7c-0.13,0.49,0.8,1.53,1.15,1.13
		c3.48-3.89,3.52,0.46,4.45,2.02c1.41,2.36,3.44,1.54,5.31,1.41c4.64-0.33,8.48-3.72,13.21-3.75c0.5-0.13,0.91,0,1.22,0.44
		c0.26,3.19-2.48,3.48-4.19,3.68c-3.48,0.42-4.21,2.5-4.2,5.41c0.01,2.64-0.01,5.26-0.39,7.9c-0.47,3.23-2.16,4.54-5.28,4.29
		c-6.88-0.55-13.77-0.15-20.65-0.25c-1.49-0.01-3-0.06-3.98,1.44c-1.35,1.92-1.18,4.09-0.99,6.25c0.46,5.32,0.27,10.84,7.34,12.25
		c2.43,0.48,2.34,3.33,1.53,5.51c-0.76,2.06-2.08,4.27-3.87,4.96c-7.16,2.78-5.36,8.77-4.41,13.74c0.56,2.92,1.15,5.38-0.29,7.97
		c-0.99,1.76,0.19,3.49-0.25,5.62c0.75-1.83-0.13-3.43,0.59-4.83c0.79-1.53,1.7-2.01,2.79-0.26c3.75,10.07,8.37,19.63,16.12,27.13
		c2.66,2.58,6.4,3.8,8.75,6.91c0.8,1.06,1.94,1.9,1.43,3.4c-0.63,1.84-2.26,1.59-3.68,1.55c-8.71-0.24-16.67-2.92-23.97-7.79
		c-1.52-1.02-3.29-2.06-4.88-0.75c-1.45,1.19,0.17,2.65,0.4,4.02c0.61,3.66-1.16,3.88-3.96,2.86c-5.99-2.17-11.22-5.67-16.32-9.46
		c-1.41-3.41,2.44-3.63,3.36-6.02c-2.25-0.97-4.54-1.74-6.63-3.32c-3.68-2.78-8.32-0.58-12.52-0.93c-0.14-0.01,0.63,1.41,0.26,2.24
		c-1.9,0.14-3.81,0.29-5.71,0.43c-0.6-0.25,0.16,0.03-0.46-0.16c-2.74-0.87-5.89-2.75-5.5-5.32c0.48-3.15,4.28-1.76,6.67-1.95
		c2.44-0.19,4.97,0.91,7.35-0.57c-3.77,1.8-7.62-1.08-11.53,0.43c-1.98,0.76-3.59-0.83-2.94-3.15c1.73-6.19-2.33-11.11-3.22-16.71
		c-0.11-0.71-1.44-1.65-1.08-2.06c3.4-3.92,2.33-10.18,6.4-13.5c1.89-1.54,3.03-4.86,6.41-4.02c5.46,0.5,5.47,0.5,6.39-4.95
		c0.14-0.82,0.34-1.61,0.87-2.27c1.03-0.59,1.77-0.03,2.47,0.66c0.58,0.81,0.69,1.82,1.07,2.72c1.09,2.59,3.26,2.95,5.59,2.58
		c2.57-0.41,3.24-2.34,3.09-4.73c-0.07-1.14-0.41-2.26-0.34-3.42c0.51-2.2,0.18-4.47-2.3-4.36c-2.16,0.1-5.4-3.22-6.64,1.68
		c-0.46,1.82-2.41,2.04-4.03,2.04c-4.15,0.01-8.31,0.46-12.44-0.33c-1.23-0.49-2.09-1.34-2.43-2.68
		C287.1,290.96,288.92,289.33,289.9,287.31z"/>
	<path class="st4" d="M-6.71,472.51c0.12,0.28,0.06,0.52-0.18,0.7c-1.27,1.16-1.3,2.85-1.77,4.36c-1.03,4.84-2.33,9.45-7.96,10.63
		c-3.99-0.74-3.99-0.74-3.48-5.64c-2.15,0.86,0.07,5.86-4.2,4.71l-0.03-0.02c-2.7-1.97-3.98-4.79-4.79-8.02
		c-0.42-1.68-0.11-2.9,1-4.05c1.83-1.01,3.51-2.12,2.77-4.76c0.49,2.67-1.55,3.67-3.05,5.03c-2.52,0.75-3.09-1.46-4.1-2.93
		c-0.67-0.99-0.34-2.62-1.82-3.12c-1.31-2.4-2.62-4.81-3.93-7.21c-0.28,0-0.56-0.01-0.84-0.01c0,4.13,0,8.27,0,12.4
		c0,4.8,0.02,9.6-0.04,14.4c-0.06,4.76-1.75,8.5-6.34,10.33c-2.62-0.28-5.26,0.97-7.87-0.1c-3.98-1.48-5.83-4.66-5.84-8.75
		c-0.08-25.97-0.08-51.94-0.01-77.91c0.01-5.04,3.21-8.56,8.11-9.57c4.86-0.99,9.02,1.26,11.32,6.28
		c5.77,12.6,11.49,25.23,17.23,37.84c0.52,1.15,0.54,2.94,2.14,2.96c1.67,0.03,1.6-1.77,2.05-2.94
		c5.12-13.43,10.27-26.85,15.36-40.29c2.22-5.87,6.59-8.62,12.29-7.55c4.44,0.83,8.03,5.73,7.89,11.13
		c-0.66,25.96-0.24,51.93-0.23,77.89c0,0.97-0.32,1.93-0.5,2.9c-1.67,1.42-3.5,2.51-5.65,2.96c-0.7,0.03-1.37-0.11-1.98-0.48
		c-0.63-0.55-0.69-1.3-0.71-2.08c-0.85,0.44-0.64,1.68-1.5,2.12c-1.02,0.63-2.16,0.73-3.29,0.89c-2.65,0.86-5.27,1.65-4.76-2.9
		c0.06-0.33,0.27-0.47,0.61-0.39c-0.21-0.32-0.37-0.26-0.52,0.19c-0.58,0.29-1.04,0.17-1.44-0.3c-0.1-7.79-0.24-15.58-0.28-23.37
		c-0.01-2.29-0.81-1.24-1.62-0.55C-6.53,468.56-6.72,470.49-6.71,472.51z"/>
	<path class="st4" d="M269.58,401.48c0.26-0.25,0.56-0.32,0.89-0.22c2.59-0.22,5.18-1,7.77,0l0.02,0.01
		c2.64,1.61,4.01,4.87,7.14,5.85c5.18,6.25,6.58,14.39,10.06,21.5c0.97,1.98,2.35,3.96,2.28,6.4c1.28,2.19-1.29,3.58-1.04,5.52
		c-0.47,0.52,0.2,0.2,0.22,0.14c0.38-1.38,1-2.5,2.65-1.43c0.46,0.66,0.92,1.32,2.01,2.88c0-12.21,0-23.54,0-34.88
		c-0.34-5.1,1.18-7.77,5.71-10.01c9.92-2.24,14.74,1.73,14.76,12.24c0.03,27.98,0.02,55.97,0.03,83.95c0,6.26-2.94,10.72-7.72,11.7
		c-5.52,1.14-9.94-1.63-12.45-7.77c-5.49-13.42-10.98-26.85-17.61-40.15c0,4,0,8,0,11.99c0,7.66,0.02,15.32,0,22.99
		c-0.03,10.24-3.81,13.75-13.71,12.79c-1.86,0-3.03-1.12-3.97-2.62c-1.26-1.09-1.86-2.52-2.05-4.17c-0.9-1.67-0.84-3.51-0.84-5.33
		c0.02-27.86-0.05-55.72,0.03-83.57c0.15-2.86,2.04-4.01,4.38-4.71c0.64-0.27,1.51-0.25,1.57-1.29
		C269.49,402.69,269.34,402.09,269.58,401.48z"/>
	<path class="st4" d="M644.82,401.43c1.3-0.37,2.59-0.34,3.86,0.09c1.91,0.96,2.97,3.25,5.28,3.58c2.28,2.09,2.51,4.83,2.47,7.74
		c-0.35,27.09-0.64,54.17-0.99,81.26c-0.06,4.73-3.42,9.9-6.94,10.95c-4.22,1.26-9.79-0.85-12-5.36
		c-6.5-13.27-12.7-26.71-19.01-40.08c-2.47,0.48-1.22,2.5-1.23,3.72c-0.12,9.43-0.05,18.86-0.09,28.29
		c-0.01,1.63,0.33,3.31-0.39,4.89c-0.98,5.97-4.62,9.08-10.23,8.77c-5.61-0.32-9.25-4.25-9.26-10.51
		c-0.07-23.92-0.03-47.84-0.03-71.76c0-3.32,0-6.64-0.02-9.97c-0.02-3.94,1.62-7.37,4.89-8.9c3.43-1.61,7.43-2.13,10.74,1.05
		c1.12,2.21,2.23,4.43,4.24,5.97c6.27,12.74,12.54,25.47,18.81,38.21c0.44-0.09,0.88-0.18,1.32-0.27c0-11.9-0.03-23.8,0.02-35.7
		c0.02-4.08,0.51-8.01,4.59-10.18C642.13,402.54,643.75,402.62,644.82,401.43z"/>
	<path class="st4" d="M378.99,409.62c0.07,0.54,0.14,1.09,0.21,1.63c1.43,2.26,0.95,4.99,1.72,7.42c0.67,8.14,3.01,15.96,4.62,23.9
		c3.41,16.8,7.2,33.51,10.76,50.28c1.46,6.9-1.7,12.64-7.55,14.1c-5.3,1.32-10.39-2.57-12.09-9.32c-1.05-4.17-0.8-9.51-3.28-12.26
		c-2.67-2.95-7.84,0.64-11.93-0.25c-0.31-0.07-0.64-0.03-0.97-0.04c-7.46-0.24-7.46-0.24-8.62,7.56c-1.54,10.3-8.25,15-15.56,10.82
		c-4.11-2.35-6.08-6.15-5.13-10.82c3.88-19.18,8.03-38.3,12.01-57.46c1.49-7.14,2.98-14.27,4.2-21.48
		c1.15-6.76,2.27-13.98,10.14-16.56c1.12-0.57,2.36-0.29,3.53-0.49c1.51,0.52,2.85,1.45,4.34,2c0.95,0.62,1.71,1.45,2.5,2.26
		c1.23,2.15,3.17,3.37,5.34,4.28c0.49,0.47,0.66,1.05,0.55,1.72c0.02,0.55-0.83,0.83-0.52,1.43c0.31,0.58-0.31-0.11,0.36-0.19
		c1.02-1.24,0.36-2.15-0.49-3.05c-1.18-1.03-2.78-1.8-2.31-3.87c1.38-3.75,3.18-1.34,4.89-0.36
		C378.22,403.24,378.65,406.41,378.99,409.62z"/>
	<path class="st5" d="M94.21,433.25c-0.16-8.3-0.54-16.6-0.41-24.89c0.13-7.99,5.99-12.19,13.51-9.94c3.5,1.05,7.04,0.34,10.54,0.72
		c2.54,0.27,5.18,0,7.24,2.03c1.79,1.88-1.89,2.67-0.99,3.47c1.79,1.6,2.22-2.6,4.24-1.57c9.29,4.54,13.69,12.97,16.88,22.41
		c5.38,15.97,7.27,32.2,3.17,48.79c-0.98,3.97-2.73,7.73-4.13,11.59c-0.03,0.91-0.46,1.58-1.18,2.08c-0.64,0.45-1.21,0.97-1.62,1.67
		c-0.22,0.33-0.49,0.61-0.82,0.83c-5.78,7.62-13.98,9.89-22.74,10.76c-3.04,0.3-6.12,0.06-9.18,0.24
		c-7.25,0.43-11.69-3.47-12.01-11.04c-0.24-5.65-0.41-11.34-0.04-16.97c0.61-9.36-0.12-18.63-0.87-27.92
		C95.49,441.39,95.11,437.28,94.21,433.25z"/>
	<path class="st4" d="M78.49,499c-12.71,0.08-25.45,1.46-38.1-0.69c-6.53-1.11-9.34-4.97-9.35-11.72
		c-0.02-24.44-0.07-48.87-0.86-73.3c-0.24-7.35,4.04-12.01,11.07-12.01c11.77,0,23.54,0.1,35.31,0.16c1.49,0.73,2.41,2.88,4.57,1.93
		c3.66,2.89,6.39,6.21,4.61,11.42c-1.7,4.98-5.4,7.24-11.95,7.29c-6.3,0.04-12.6,0.12-18.89-0.04c-2.96-0.07-4.29,0.57-4.19,4.1
		c0.34,12.4,0.21,12.4,12.26,12.4c3.55,0,7.11-0.14,10.65,0.08c6.49,0.39,10.73,4.75,10.56,10.6c-0.17,5.81-4.71,10.02-11.05,10.05
		c-6.62,0.03-13.23-0.09-19.85-0.15c-0.61-0.5-1.27-1-2.08-0.69c-0.18,0.07-0.02,0.6,0.22,0.85c-0.04,5.31,0.03,10.63-0.18,15.94
		c-0.11,2.82,0.78,3.75,3.57,3.65c6.93-0.25,13.86-0.28,20.79-0.24c4.7,0.03,9.76,4.3,10.78,8.9c0.97,4.35-1.73,7-4.34,9.66
		C80.98,498.03,79.47,497.95,78.49,499z"/>
	<path class="st1" d="M341.23,333.28c-1.01-0.55-2.41-0.42-2.02,0.78c1,3.04-1.21,4.95-2.09,7.39c0.84-3.88-1.66-7.8,0.94-11.75
		c1.63-2.48-2.24-4.38-1.58-7.65c0.53-2.64,0.62-5.82,0.4-8.73c-0.13-1.78,0.71-1.93,1.93-2c1.26-0.07,2.64,0.21,3.46-1.2
		c1.34-2.31,4.96-3.8,3.64-7.01c-1.03-2.5-3.95-3.45-6.62-3.76c-1.64-0.19-3.37-0.74-2.71-2.49c1.63-4.35-0.67-8.47-0.16-12.7
		c0.17-1.43,0.27-2.66,1.97-2.84c0.96-1.35,2.93-0.61,3.87-2c7.39,0.24,14.8-0.53,22.17,0.47c1.96,0.26,2.99-0.51,3.06-2.7
		c0.11-3.39,0.99-6.88,0.46-10.15c-0.63-3.96,1.81-4.23,4.11-4.77c2-0.48,4.23-0.24,5.1-2.8c3.43-2.05,5.99,0.36,8.73,1.83
		c4.51,1.46,7.75,5.59,12.58,6.37c1.64,1.74,4.03,0.8,5.89,1.74c0.33-0.13,0.64-0.08,0.92,0.14c4.05,5.42-2.14,2.3-2.9,3.7
		c-7.56,0.01-14.76,2.35-22.2,3.4c3.35,4.01,8.52,4.35,12.49,6.99c1.5,1.49,3.12,2.8,5.03,3.7c7.28,4.18,13.82,9.44,20.35,14.72
		c-0.22,3.06-3.39,3.62-4.69,3.47c-3.16-0.36-6.26,1.29-9.33-0.01c-6.05-1.48-12.12-3.19-17.78,1.51c0.54,2.21,3.33,0.99,4.48,2.53
		c1.11,1.22,2.72,1.2,4.1,1.76c1.22,0.71,2.44,1.41,3.66,2.12c0.82,0.97,2.02,1.3,3.05,1.91c8.1,4.36,16.31,8.52,22.56,15.73
		c0.94,1.09,2.62,1.77,2,3.53c-0.67,1.93-2.51,2.44-4.29,2.71c-5.26,0.81-10.25-0.84-15.17-2.25c-9.41-2.71-18.75-5.68-28.02-8.84
		c-2.74-0.94-5.39-0.58-8.08-0.76c-2.33,1.33-3.61-0.45-5.04-1.8c-0.33-0.28-0.64-0.59-0.95-0.89c-0.82-0.9-1.96-1.7-1.13-3.15
		c-0.06,0.14-0.15,0.19-0.21,0.29c-1.09,1.55-3.23,0.86-4.41,2.67c-1.79,2.73-4.08,0.7-5.94-0.32c-2.08-1.14-2.41-2.95-0.84-4.93
		c0.82-0.77,1.78-1.01,2.86-0.84c-1.27-0.23-2.34,0.13-3.17,1.18c-1.3,1.25-0.13,5.11-3.82,3.81c-4.91,0.09-7.24,2.48-7.16,7.51
		C340.76,330.35,341.06,331.81,341.23,333.28z"/>
	<path class="st5" d="M679.51,455.32c-8.73-8.19-14.36-17.55-11.64-30.47c1.8-8.56,10.9-17.94,19.58-19.65
		c0.92,0.25,1.78,0.61,2.82,0.3c5.86-1.76,8.36-0.96,11.3,4.11c1.72,2.98,3.08,5.79,7.3,4.89c1.93-0.41,2.77,1.44,3.02,3.19
		c0.4,2.81,1.72,4.21,4.59,3.56c0.27,0.15,0.33,0.37,0.19,0.65c0.45,0.91,0.33,1.91,0.44,2.88c0.55,4.86-0.01,5.44-5.08,5.37
		c-3.4-1.15-1.24-5.11-3.28-6.95c-0.29-0.37-0.63-0.72-0.7-1.23c-0.04,0.9,0.81,1.16,1.2,1.75c0.89,3.55-0.18,4.71-3.64,3.35
		c-1.94-0.76-3.17-2.51-5.47-4.18c1.48,3.66,3.42,5.07,6.42,5.23c1.51,0.08,3.27-0.25,4.4,1.36c1.37,3.24,0.23,4.68-3.07,4.5
		c-0.79-0.04-1.57-0.21-2.37-0.09c-7.3,1.16-6.32,0.1-8.53-5.37c-2.42-4.12-5.36-1.27-8.12-0.65c-1.17,0.04-2.25,0.32-3.06,1.18
		c-0.16,0-0.27,0.02-0.27,0.02c0.18,0.34,0.35,0.33,0.57-0.02c1.26,0.55,1.56,1.78,2.01,2.89c0.14,0.44,0.23,0.88,0.29,1.34
		c-1.81,5.33,3.4,4.96,5.47,7.14c4.9,4.72,11.76,7.24,14.88,13.98c7.13,10.21,8.11,21.22,3.96,32.87c-0.91,2.28-2.12,4.32-4.16,5.72
		l0.06-0.06c-2.57,3.19-5.57,5.67-9.75,6.17c-4.07,0.83-8.12,1.81-12.22,2.47c-6.51,1.05-11.64-1.53-15.15-7.13
		c-2.49-3.96-5.38-7.85-5.44-12.95c-0.56-2.49-0.6-4.98,0.02-7.46c0.72-4.68,3.5-7.44,7.74-8.85c1.72-0.72,3.44-0.61,5.17-0.06
		c0.92,0.64,1.83,1.29,2.75,1.93c1.27,1.84-0.62,3.25-0.62,4.91c-0.24,2.22,0.21,4.52-0.66,6.67c-1.44,2.09-2.82,0.69-4.23,0
		c4.86,3.8,9.92,3.78,15.14,0.76c4.63-3.24,4.83-7.25,1.09-12.38c-2.89-3.96-8.18-4.61-10.77-8.82
		C680.87,457.31,680.75,455.87,679.51,455.32z"/>
	<path class="st4" d="M437.29,401.34c6.56-0.02,10.69,3.75,10.83,9.88c0.13,5.82-3.94,10.05-10.03,10.43
		c-8.51,0.53-8.15,0.55-8.68,9.47c-1.24,20.6-0.33,41.2-0.66,61.79c-0.13,7.99-3.69,12.42-10.07,12.42
		c-6.27,0-10.16-4.67-10.19-12.44c-0.09-22.28-0.2-44.56-0.1-66.83c0.02-3.63-1.26-4.68-4.47-4.44c-2.25,0.17-4.53-0.13-6.77,0.05
		c-5.83,0.47-10.01-1.79-12.32-7.44c-1.02-2.34-0.71-4.62,0.27-6.87l-0.04,0.05c0.95-3.1,2.85-5.19,5.94-6.05c2.5,0,5-0.01,7.5-0.01
		c1.55,1.26,3.38,0.88,5.12,0.89c6.93,0.04,13.85,0.04,20.78,0c1.74-0.01,3.57,0.37,5.12-0.89c1.29,0,2.59-0.01,3.88-0.01
		C434.71,402.52,436,402.52,437.29,401.34z"/>
	<path class="st4" d="M456.6,449.73c0-14.48-0.01-28.95,0-43.43c0-5.14,2.56-8.47,7.19-9.99c4.57-1.49,8.12,0.38,11.04,4.05
		c1.46,1.83,1.61,3.98,1.61,6.12c0.04,28.95-0.11,57.9,0.12,86.84c0.07,8.6-8.31,13.11-14.3,9.94c-4-2.12-5.72-5.5-5.7-10.1
		C456.64,478.69,456.6,464.21,456.6,449.73z"/>
	<path class="st6" d="M217.17,505.14c-13.58,4.39-26.24,1.79-38.32-5.32c-0.67-0.39-1.51-0.48-2.27-0.71
		c-2.37-0.34-3.71-2.07-4.98-3.9c-5.44-6.2-11.15-12.18-14.12-20.24c-1.65-4.47-3.21-8.94-3.49-13.77c-0.97-4-1.45-8-0.02-12
		c1.13-10.58,4.9-19.98,11.85-27.95c1.46-1.17,2.81-2.45,3.81-4.08c8.22-8.45,18.1-13.24,29.7-13.92c4.32-0.25,8.66,0.04,12.99,0.09
		c1.89,0.88,4,1.02,5.9,1.84c0.61,0.07,1.22,0.15,1.84,0.22c1.04,1.19,2.67,1.07,3.89,1.85l0,0.01c1.02,1.27,2.8,0.93,3.93,1.96
		c0.62,0.06,1.24,0.13,1.86,0.19c4.43,1.05,7.19,4.3,9.74,7.84c2.61,3.32,5.22,6.64,7.83,9.96c0.27,0.32,0.51,0.67,0.73,1.03
		c0.38,0.97,0.79,1.92,1.49,2.69c0.72,1.03,0.76,2.4,1.55,3.39c-0.03,0.32,0.02,0.62,0.15,0.91c1.16,1.08,1.04,2.77,1.79,4.04
		l-0.02-0.02c1.38,1.54,0.91,3.47,1.02,5.27c-0.28,6.76,0.53,13.51,0,20.27c-0.04,1.53,0.14,3.11-0.93,4.41
		c-0.04,0.6-0.08,1.21-0.12,1.81c-0.88,1.27-0.67,3.04-1.82,4.18c-4.85,9.5-10.88,17.94-19.9,23.74c-2.87,1.84-5.85,3.43-9.14,4.31
		C220.51,504.01,218.64,504.02,217.17,505.14z"/>
	<path class="st6" d="M574.03,417.25c15.63,16.44,19,44.08,6.78,63.97c-0.98,0.79-1.23,2.06-1.9,3.05
		c-5.02,8.85-12.69,14.56-21.33,19.13c-2.54,2.33-5.81,2.8-8.9,3.72c-7.59,1.02-15.04,1.87-22.83,0.42
		c-16.01-2.99-27.87-11.64-36.23-25.71c-1.73-2.91-3.78-5.8-3.91-9.47c-1.49-2.12-0.15-5.21-2.29-7.11
		c-0.36-0.72-0.51-1.5-0.53-2.31c0.15-1.79-0.45-4.06,2.44-4.12c1.87,0.92,1.55,3.09,2.44,4.57c2.58,4.61,3.84,10.06,8.12,13.59
		c0.89,3.33,3.27,5.51,5.63,7.7c1.23,1.44,2.53,2.79,3.91,4.07c0.72,0.75,1.43,1.51,2.23,2.17c1.1,1.14,2.72,1.23,3.98,2.07
		c4.95,3.18,10.2,5.48,16.09,5.96c1.61,0.13,3.15,0.56,4.52,1.49c2.66,2.6,5.32,1.05,7.98-0.03c7.32-1.22,14.55-2.51,20.35-7.98
		c6.52-6.15,12.36-12.77,15.71-21.37c1.89-2.44,3.46-5.01,3.29-8.32c1.81-6.73,0.25-13.42-0.26-20.11c-0.24-3.1-2.59-5.23-4.05-7.75
		c-2.04-3.53-3.68-7.31-6.13-10.59c-0.85-1.91-2.37-2.89-4.33-3.26c-0.66-3.07-2.7-5.43-3.96-8.19c0.43-3.08,2.35-2.34,4.26-1.82
		C568.83,412,570.99,415.28,574.03,417.25z"/>
	<path class="st3" d="M255.95,329.26c-2.29-2.58-5.32-1.96-8.01-1.5c-3.04,0.53-5.67-1.21-5.04-4.41c1.47-7.41,0.15-14.7-0.56-22.01
		c-0.44-4.56,4.14-9.03,7.95-7.25c4.99,2.33,10.16,1.33,15.16,0.84c4.29-0.42,8.08-0.82,10.8,3.36c1.94,2.72-0.59,5.79,0.71,8.69
		c0.61,1.36,0.58,2.79,2.46,3.1c1.35,0.22,3.26,0.4,2.95,2.48c-0.28,1.89-2.15,1.65-3.53,1.94c-0.42,0.09-0.96,0-1.07,0.7
		c1.05,1.15,2.77,0.7,3.92,1.6c1.71,1.34,2.35,3.12,1.71,5.27c-0.23,0.77-0.37,0.27-3.25,0.34c-1.91,0.05-3.69,2.26-5.98,0.96
		c-5.61-0.65-9.89,3.03-14.68,4.95C258.29,328.82,257.22,329.28,255.95,329.26z"/>
	<path class="st7" d="M274.17,323.39c2.4-0.57,5.23-0.41,5.77-3.82c2.19,0.67,0.23,2.48,1.23,3.37c2.19-2.77,1.64-5.17-1.53-5.54
		c-2.32-0.27-3.84-1.04-4.76-3.29c2.03-1.77,4.83,0.19,6.62-1.51c-0.1-1.21-0.82-1.16-1.42-1.25c-3.51-0.54-6.25-4.85-4.65-7.97
		c0.9-1.76-0.64-3.63,0.83-5.07c0.05-1.07,0.1-2.14,0.15-3.21c2.75,3.47,4.46,7.51,6,11.64c-0.26,0.65-0.85,0.9-1.4,1.21
		c0.6-0.21,1.07-0.6,1.51-1.06c1.85-0.47,3.36,0.14,4.61,1.52c0.26,0.26-0.13,0.95,0.36,0.95c0.42,0.01,0.42-0.69,0.7-1.01
		c2.93-4.03,2.69-8.42,1.47-12.93c4.01-0.04,8.03-0.22,12.04-0.07c3.53,0.14,4.74-1.33,3.53-5.55c2.19,1.69,4.06,1.34,6.04,1.19
		c4.47-0.33,6.47,2.64,4.72,6.52c-0.16,0.03-0.35,0.13-0.47,0.08c-4.06-1.88-7.52-1.51-9.97,2.77c-0.76-0.33-1.52-0.65-2.28-0.98
		c-5.56-2.57-6.79-1.68-6.78,4.94c0,0.99,0.17,1.98-0.46,2.86c-1.63,0.49-1.81,0.78-2,2.7c-0.1,1.05-0.88,1.04-1.71,1.16
		c-2.89,0.41-4.03,2.13-3.1,4.72c0.49,1.37-0.63,1.71-1.17,2.39c-3.98,4.96-3.46,8.21-0.62,14.24c1.25,2.65,3.86,6.45,1.23,10.13
		c-0.56,0.79-0.77,1.52-0.18,2.2c0.58,0.67,1.63,0.82,2.22,0.3c1.99-1.73,3.78-2.24,5.88-0.11c0.66,0.67,1.91,0.41,2.68-0.32
		c2.82-2.67,4.09-0.22,6.15,1.87c-5.8,2.56-11.46-0.24-17.72,1.45c3.05,1.54,4.57,3.65,6.16,5.68c-4,1.21-7.23,3.95-10.9,5.84
		c-8.14,4.2-17.08,6.07-25.53,9.4c-3.04,1.2-5.92,2.29-8.27,4.62c-3.83,0.22-4.08-0.24-2.28-4.18c2.85-6.47,8.49-9.78,14.22-12.66
		c5.62-2.83,10.94-6.03,15.63-10.27c3.72-3.35,6.24-7.52,7.63-12.42c1.51-5.34-0.84-8.79-6.19-9.11
		C276.73,324.7,274.85,325.88,274.17,323.39z"/>
	<path class="st8" d="M518.87,401.32c6.33-1.1,12.59-2.58,19.11-2.1c8.81,0.64,16.99,3.09,24.41,8.07c1.5,1.01,1.48,2.03-0.16,2.73
		c-1.03,0.44-1.84,1.14-2.75,1.74c-0.92,0.42-1.86,0.42-2.81,0.14c-1.32-0.59-2.58-1.4-4.09-1.41c-10.75-3.23-21.56-4.4-32.66-1.93
		c-3.92,0.87-7.45,3-11.47,3.43c-2.05-0.42-2.37-2-2.38-3.79c0.34-0.35,0.68-0.7,1.01-1.05c0.89-0.84,2.03-1.21,3.06-1.79
		c0.57-0.07,1.14-0.14,1.72-0.21c1.05-0.55,2.19-0.94,3.08-1.79l-0.1-0.19C515.82,401.74,517.55,402,518.87,401.32z"/>
	<path class="st9" d="M710.75,429.25c6.39,1.34,6.05-3.09,5.93-7.34c2.71,4.94,2.01,10.36,1.49,15.53
		c-0.41,4.14-3.97,6.19-7.42,7.84c-4.41,1.76-7.52,1-10.53-2.75c-3.65-4.54-4.16-9.75-2.85-15.29c1.69,4.87,4.62,6.08,9.84,5.72
		C710.79,432.72,710.75,431.71,710.75,429.25z"/>
	<path class="st10" d="M697.37,427.24c0.25,1.62,0.65,3.24,0.73,4.87c0.47,9.41,3.68,12.78,12.66,13.17c-1.82,2.77-4.19,5.41-2,9.11
		c-3.79-3.62-6.96-8.05-12.3-9.63c-1.62-0.48-1-3.14-2.81-3.67c-2.41-2.36-5.49-4.17-6.12-7.98c0.07-0.33,0-0.63-0.2-0.9
		c-0.33-1.84-1.2-3.84,1.3-4.89C691.53,425.83,694.4,422.2,697.37,427.24z"/>
	<path class="st11" d="M264.94,407.27c-0.16,1.31-0.45,2.61-0.45,3.92c0,29,0.04,58.01,0.07,87.01c-1.97-1.04-1.82-2.92-1.82-4.77
		c0.01-28.15,0-56.3,0.01-84.45c0-2.85,0.17-5.59,3.92-5.71C267.08,405.06,265.83,406.08,264.94,407.27z"/>
	<path class="st9" d="M716.49,421.25c-2.23-0.03-1.49,2.59-2.87,3.74c-1.01-1.95-2.36-3.55-2.64-5.32c-0.5-3.23-0.42-5.65-4.86-3.33
		c-1.62,0.84-3.67-2.28-4.76-4.2c-3.96-6.96-3.88-7.01-11.19-5.11c-1.54,0.4-2.53-0.1-2.72-1.84c9.69-4.03,22.12,1.08,27.01,11.14
		C715.23,417.93,715.82,419.61,716.49,421.25z"/>
	<path class="st7" d="M299.58,353.14c-0.41-1.8-2.84-1.31-3.64-3.81c5.33,0,10.66-1.06,15.24,0.39c2.81,0.89,5.22,3.71,8.82,4.11
		c1.36,0.15,1.36,2.63-0.51,3.26c-2.13,0.73-3.68,1.83-4.37,4.07c-3.71-0.72-6.97-2.24-9.58-5.18
		C303.98,354.23,301.96,353.19,299.58,353.14z"/>
	<path class="st12" d="M506.06,408.21c0.69,1.02,1.37,2.04,2.06,3.06c0.52,1.98-0.82,3.2-2,4.14c-5.66,4.47-8.94,11.14-14.14,16.02
		c-1.45,1.36-2.11,3.26-2.83,5.09c-0.57,1.43-0.72,3.43-3.06,2.96c-1.51-1.33-0.9-2.83-0.33-4.33
		C488.82,423.22,496.78,415.19,506.06,408.21z"/>
	<path class="st13" d="M238.5,317.3c-1.11,1.11-2.12,2.44-3.97,1.94c-1.95,0.62-3.88-0.52-5.83-0.07
		c-4.82-0.02-9.64-0.03-14.46-0.05c-0.35-1.15-2.45-2.67-1.2-3.12c1.59-0.57,2.85-2.99,5.3-1.4c2.89,1.87,3.58,1.22,4.3-2.22
		c0.32-1.56,1.45-2.86,3.25-3.08c0.97-0.84,1.94-0.72,2.91,0c0.39,1.74,0.09,2.12-2.68,3.2c1.87,1.32,3.81,0.58,5.59,0.8
		c1.13-0.15,0.79,3.56,2.99,1.05c1.25-1.43,2.58,0.31,3.8,0.95c0.32,0.33,0.65,0.67,0.97,1C239.7,317.2,239.52,317.68,238.5,317.3z"
		/>
	<path class="st14" d="M691.36,479.41c-3.39,5.1-14.3,4.56-16.99-0.84c-0.38-0.77-0.61-1.66-0.04-2.33
		c0.81-0.95,1.33,0.06,1.95,0.49c1.16,0.81,1.75,2.48,3.45,2.49c1.48-2.67,1.49-5.34,0-8c0.67-1.39,1.33-2.77,2-4.16
		c3.93,1,4.99,4.53,4.55,7.62C685.56,479.69,687.48,480.33,691.36,479.41z"/>
	<path class="st15" d="M-1.01,491.22c-0.39,4.14,1.75,3.05,3.88,2c2.58,1.61,5.17,1.31,7.75,0c1.99-0.55,3.44-2.76,5.85-2.01
		c-0.89,5.48-4.19,8.61-9.32,8.79c-4.94,0.18-8.63-3.09-9.94-8.79C-2.19,491.22-1.6,491.22-1.01,491.22L-1.01,491.22z"/>
	<path class="st16" d="M485.75,435.17c0.2,1.4-0.44,3.03,1.04,4.09c2.11,3.71-0.02,7.43-0.04,11.15c-0.01,1.62-0.57,3.25-0.01,4.89
		c0.15,1.44,0.2,2.85-0.95,3.94c-2.63,0.34-1.7,2.53-1.99,4.08c-2.42,0.05-0.73-2.4-1.81-3.16c-0.73-7.32,0.48-14.46,2.01-21.55
		C484.25,437.38,485.14,436.31,485.75,435.17z"/>
	<path class="st17" d="M363.6,319.3c-0.16,1.55,1.35,1.96,1.94,3c-1.3,0.96-2.8,0.21-4.17,0.54c1.38-0.25,2.88,0.44,4.17-0.54
		c1.8,0.79,2.38,3.72,5.02,3.06c-7.94,1.01-15.48-0.4-22.65-3.99c2.89,0.27,1.3-4.21,4.06-4.07c-0.44,2.7,0.89,4.04,3.16,5.2
		c3,1.53,2.69-1.03,3.65-2.44C359.96,318.3,362.11,320.59,363.6,319.3z"/>
	<path class="st18" d="M429.53,401.36c-0.23,1.75-1.45,1.91-2.82,1.9c-8.46-0.01-16.92-0.01-25.39,0c-1.37,0-2.59-0.16-2.82-1.9
		C408.85,401.36,419.19,401.36,429.53,401.36z"/>
	<path class="st19" d="M-28.17,475.23c-0.63,2.77-0.24,4.77,3.15,4.19c0.49,2.66-2.5,1.06-2.6,3.18c1.61,0.93,3.97,1.74,3.29,4.65
		c-3.11,0.31-4.49-2.57-4.92-4.39c-1.14-4.77-4.18-8.68-5.07-13.47C-30.86,469.76-31.86,475.12-28.17,475.23L-28.17,475.23z"/>
	<path class="st20" d="M367.48,401.26c-1.26-0.04-1.91-0.71-1.95-2.01c-0.95-1.37-2.91-0.65-3.88-1.98
		c-1.37-0.04-2.75-0.08-4.12-0.12c6.39-3.89,11.98-0.95,17.55,2.17c0.73,0.55,0.67,1.22,0.28,1.94c-1.34,0.14-2.67-2.2-4.01,0
		C370.06,402.33,368.77,402.34,367.48,401.26z"/>
	<path class="st21" d="M559.46,411.31c0.06-1.36,0.75-2.02,2.07-2.05c1.58-0.04,1.17-1.03,0.86-1.97c4.9,2.05,8.42,5.82,11.64,9.95
		c-3.8-0.25-5.47-4.49-9.22-5.15c-1.66-0.29-2.93-1.49-3.4,1.15C559.51,413.94,558.73,413.43,559.46,411.31z"/>
	<path class="st22" d="M239.47,417.26c-3.25-2.61-6.49-5.23-9.74-7.84c0.15-1.65,1.02-2.36,2.59-1.97
		C235.22,408.17,239.45,414.01,239.47,417.26z"/>
	<path class="st23" d="M698.85,499.11c3.25-2.06,6.5-4.11,9.75-6.17c-1.13,3.57-1.13,3.57,2.17,5.59
		C706.42,499.05,702.93,502.71,698.85,499.11z"/>
	<path class="st24" d="M615.78,496.52c-0.03-11.99-0.08-23.98-0.06-35.96c0-0.96-0.61-2.51,1.19-2.61c0.16-0.01,0.38,1.09,0.57,1.68
		c-1.97,1.51-0.99,3.68-1.07,5.55C616,475.61,617.09,486.09,615.78,496.52z"/>
	<path class="st19" d="M-24.3,487.26c1.68-0.2,2.05-1.39,1.94-2.84c-0.17-2.31,1.1-3.61,3.1-4.64c-1.91,2.01,5.5,4.61-0.91,6.2
		c1.04,1.36,3,0.63,3.56,2.22C-19.43,490.08-21.92,489.14-24.3,487.26z"/>
	<path class="st25" d="M253.12,465.34c0-7.07,0-14.14,0-21.2c2.38-0.01,0.71,2.44,1.82,3.2c0.04,3.31,0.09,6.61,0.13,9.92
		C256.83,460.57,254.73,462.89,253.12,465.34z"/>
	<path class="st26" d="M142.63,487.28c0.55-0.48,1.09-0.95,1.64-1.43c3.11,4.11,2.99,5.45-0.94,8.89c-1.03-1.35-1-3.45-2.67-4.31
		c0,0-0.12-0.46-0.12-0.46C141.49,489.29,141.52,487.84,142.63,487.28z"/>
	<path class="st27" d="M404.04,305.41c4.79-0.66,9.69-0.8,14.01-3.46c1.13,1.73,0.18,2.95-1.24,3.38
		C412.6,306.59,408.31,307.99,404.04,305.41z"/>
	<path class="st11" d="M251.07,434.34c-1.13-0.7-1.8-1.71-1.95-3.07c-0.89-0.85-1.14-2.11-1.84-3.08c-0.01-0.32,0-0.65,0.02-0.97
		c1.49,0.19,2.54-2.74,4.49-0.33c1.68,2.07,1.19,3.39-0.25,5.09C251.09,432.5,251.21,433.54,251.07,434.34z"/>
	<path class="st28" d="M391.01,401.37c-1.98,2.02-3.96,4.04-5.94,6.05c-0.22-0.8-0.37-1.7-1.28-1.95c-1.43-0.39-3.29-0.68-2.48-2.72
		c0.92-2.3,1.95,0.25,2.97,0.36C386.77,403.37,388.33,400.1,391.01,401.37z"/>
	<path class="st11" d="M255.62,481.02c-1.06-2.8-0.54-5.37-0.55-7.87c-0.01-1.16,0.73-1.76,1.84-1.81c0.88-0.04,1.61,0.29,1.78,1.24
		c0.15,0.86,0.12,1.16-1.07,1.76C255.54,475.39,258.14,478.86,255.62,481.02z"/>
	<path class="st29" d="M128.35,403.06c-1.8,2.91-3.31,7.46-6.61,0.78c0.49-1.26,3.57-0.05,3.36-2.68
		C126.55,401.12,127.48,402.04,128.35,403.06z"/>
	<path class="st30" d="M307.3,397.24c-3.24,2.53-5,5.95-5.71,10.01c-2.18-2.26-0.51-8.13,2.89-9.73
		C305.29,397.14,306.35,397.32,307.3,397.24z"/>
	<path class="st31" d="M299.57,439.25c-1,1.73-2,3.46-3.16,5.48c-1.65-3.58-0.47-6.68,1.34-9.71
		C298.88,436.18,299.51,437.59,299.57,439.25z"/>
	<path class="st32" d="M385.9,261.19c-2.91-0.61-5.82-1.22-8.73-1.83c-0.3-0.07-0.6-0.14-0.91-0.21c0.1-3.26,2.44-1.76,3.84-1.74
		c1.73,0.03,3.45,0.58,4.85,1.78C385.27,259.86,385.59,260.52,385.9,261.19z"/>
	<path class="st33" d="M153.96,449.21c0.01,4,0.02,8,0.02,12C151.71,457.21,150.56,453.22,153.96,449.21z"/>
	<path class="st11" d="M253.12,465.34c1.48-2.48,1.66-5.3,1.95-8.08c0.47,0.43,1.39,0.92,1.35,1.29c-0.45,3.77-0.48,7.71-3.34,10.68
		C253.1,467.93,253.11,466.63,253.12,465.34z"/>
	<path class="st34" d="M223.63,340.03c-1.52,2.06-3.64,0.63-5,1.78c-0.86,0.73-1.84,1.92-2.29-0.26c-0.28-1.36,0.47-2.23,1.84-2.21
		C219.88,339.36,221.64,338.87,223.63,340.03z"/>
	<path class="st35" d="M548.68,507.12c2.68-1.97,5.77-2.89,8.9-3.72C555.94,508.01,552.2,507.28,548.68,507.12z"/>
	<path class="st36" d="M518.87,401.32c-1.11,1.18-2.42,1.87-4.04,1.86c0.09-2.39-2.53-1.41-3.4-2.97
		C514.36,397.74,516.49,400.56,518.87,401.32z"/>
	<path class="st37" d="M171.6,495.21c2.08,0.73,3.59,2.23,4.98,3.9C173.37,501.36,172.11,500.38,171.6,495.21z"/>
	<path class="st30" d="M299.93,401.87c-1.4,1.31-2.12,2.55-2.97,2.65c-1.75,0.22-1.13-1.5-1.2-2.46c-0.08-1.08-0.2-2.54,1.33-2.61
		C298.8,399.38,297.74,401.82,299.93,401.87z"/>
	<path class="st28" d="M375.36,401.26c-0.09-0.65-0.18-1.29-0.28-1.94c4.09-0.06,2.65,3.93,3.88,5.92c0.64,1.04,0.06,2.89,0.02,4.38
		C377.48,406.97,377.88,403.44,375.36,401.26z"/>
	<path class="st38" d="M81.12,403.37c-0.45,1.15-0.9,2.3-1.56,4c-1.17-2.32-2.09-4.12-3.01-5.93
		C78.39,401.29,80.11,401.45,81.12,403.37z"/>
	<path class="st39" d="M285.41,407.11c-3.93,0.06-5.26-3.24-7.14-5.85C281.61,401.97,282.99,405.22,285.41,407.11z"/>
	<path class="st40" d="M616.11,411.15c-3.31-0.56-4.48-2.73-4.24-5.97C614.45,406.28,615.64,408.44,616.11,411.15z"/>
	<path class="st16" d="M483.88,465.22c3.47,1.6,1.32,4.73,1.84,7.13c-1.98-1.16-1.81-3.21-1.99-5.11
		C483.32,466.53,483.26,465.85,483.88,465.22z"/>
	<path class="st39" d="M264.94,407.27c0.58-1.33,1.15-2.66,1.73-3.99c0.97-0.6,1.94-1.2,2.92-1.8c0.3,0.59,0.61,1.18,0.91,1.77
		c-0.33,0.99-1.35,1.26-1.93,2C267.36,405.92,266.15,406.6,264.94,407.27z"/>
	<path class="st11" d="M254.94,447.34c-0.61-1.07-1.22-2.13-1.82-3.2c-0.04-1.62-0.08-3.24-0.12-4.86
		C257.01,441.1,254.15,444.68,254.94,447.34z"/>
	<path class="st41" d="M94.21,433.25c1.86,3.9,2.06,8.03,1.61,12.26C94.71,441.5,94.09,437.43,94.21,433.25z"/>
	<path class="st42" d="M402.39,273.13c0.58-1.55,5.18,0.25,2.9-3.7c1.75-0.03,3.49,0.46,3.21,2.56c-0.21,1.56-2.03,1.19-3.26,1.24
		C404.3,273.27,403.34,273.17,402.39,273.13z"/>
	<path class="st43" d="M204.75,314.3c0.27-0.01,0.54-0.02,0.8-0.01c1.03,0.57,2.44,0.55,2.88,2.01c0.31,0.91,0.62,1.83,0.93,2.74
		C205.88,319.49,205.01,317.22,204.75,314.3z"/>
	<path class="st44" d="M361.65,223.58c2.98,0.48,6.13,0.05,8.91,1.69C367.6,224.62,364.08,227.12,361.65,223.58z"/>
	<path class="st14" d="M-53.33,499.2c2.62,0.29,5.27-2.41,7.87,0.1C-48.1,501.1-50.73,500.97-53.33,499.2z"/>
	<path class="st45" d="M51.43,459.26c-1.18-0.13-2.5,0.26-3.92-1.31c2.49-0.64,4.48-1.95,5.78,1.15
		C52.67,459.16,52.05,459.21,51.43,459.26z"/>
	<path class="st46" d="M128.54,398.21c2.56-1.11,4.1-1.28,6.14,0.02C132.65,399.65,131.12,399.47,128.54,398.21z"/>
	<path class="st47" d="M-6.71,472.51c-2.97-3.24-0.74-4.33,2.02-5.21C-4.76,469.29-5.36,471.05-6.71,472.51z"/>
	<path class="st44" d="M351.97,223.33c-1.07-1-1.62-2.49-0.47-3.36c2.05-1.54,3.78,0.38,5.54,1.27
		C355.92,223.41,351.94,218.2,351.97,223.33z"/>
	<path class="st28" d="M385.11,407.37c-0.09,2.29-0.18,4.58-0.27,6.87C382.59,411.86,382.54,409.56,385.11,407.37z"/>
	<path class="st23" d="M708.54,493c1.39-1.91,2.78-3.82,4.16-5.73C712.81,490.33,711.84,492.56,708.54,493z"/>
	<path class="st28" d="M380.92,418.67c-1.22-2.31-1.8-4.78-1.72-7.42C382.61,413.03,380.5,416.16,380.92,418.67z"/>
	<path class="st48" d="M246.9,369.25c-0.81,2.31-2.32,5.01,2.28,4.18c-0.59,2.74-2.27,1.52-3.08,0.54
		C244.77,372.34,244.35,370.41,246.9,369.25z"/>
	<path class="st11" d="M259.63,492.86c1.09,1.93,2.3,3,0.83,4.38c-0.25,0.24-1.14,0.26-1.23,0.09
		C258.58,496.12,258.85,494.92,259.63,492.86z"/>
	<path class="st49" d="M653.97,405.1c-2.84,0.5-4.28-1.19-5.28-3.58C651,401.85,652.69,403.15,653.97,405.1z"/>
	<path class="st50" d="M169.62,417.18c-0.19,2.43-1.52,3.74-3.81,4.08C166.28,419.11,167.68,417.88,169.62,417.18z"/>
	<path class="st51" d="M246.04,283.2c1.64-1.64,2.55-0.56,3.11,1.01c0.65,1.8-0.17,2.8-1.95,3.05
		C247.13,285.81,247.63,284.18,246.04,283.2z"/>
	<path class="st52" d="M397.71,287.22c-2.77,0.35-4.08-1.42-5.03-3.7C394.79,284.13,396.48,285.34,397.71,287.22z"/>
	<path class="st44" d="M359.69,229.4c-2.01-0.89-3.72-2.18-5.1-3.93C357.54,225.05,358.87,226.88,359.69,229.4z"/>
	<path class="st53" d="M483.88,465.22c-0.05,0.67-0.1,1.35-0.15,2.02c-2.03-1.98-1.95-4.52-1.75-7.09c0.6,1.05,1.21,2.11,1.81,3.16
		C483.82,463.95,483.85,464.59,483.88,465.22z"/>
	<path class="st54" d="M228.7,319.17c1.95-0.83,3.91-2.03,5.83,0.07c0,0,0.06-0.02,0.06-0.02c-0.9,0.62-1.65,1.61-2.94,1.32
		c-0.57-0.06-1.14-0.11-1.7-0.17C229.54,319.97,229.12,319.57,228.7,319.17z"/>
	<path class="st39" d="M278.25,401.25c-2.59-0.25-5.18,0.88-7.77,0C273.07,399.6,275.66,399.51,278.25,401.25z"/>
	<path class="st55" d="M218.22,405.19c-2.22,0.24-4.29-0.03-5.9-1.84C214.54,403.08,216.57,403.49,218.22,405.19z"/>
	<path class="st18" d="M437.29,401.34c-1.29,2.74-2.59,2.74-3.88,0C434.71,401.34,436,401.34,437.29,401.34z"/>
	<path class="st11" d="M266.62,502.37c1.32,0.87,2.64,1.74,3.97,2.62C268.11,505.98,266.6,505.39,266.62,502.37z"/>
	<path class="st56" d="M626.36,412.73c-0.81-0.12-0.85-0.8-0.85-1.44c0-0.64,0.02-1.42,0.88-1.42c0.85,0,0.88,0.78,0.88,1.42
		C627.27,411.93,627.26,412.63,626.36,412.73z"/>
	<path class="st57" d="M394.62,245.26c-0.62-0.05-1.37-0.05-1.36-0.92c0.01-0.87,0.76-0.9,1.38-0.9c0.62,0,1.37,0.05,1.36,0.92
		C396,245.23,395.24,245.21,394.62,245.26z"/>
	<path class="st42" d="M404.38,269.3c-2-0.46-4.66,1.46-5.89-1.74C400.51,267.94,402.6,268.06,404.38,269.3z"/>
	<path class="st58" d="M227.87,409.24c-1.54-0.15-3.57,0.71-3.93-1.96C225.6,407.2,227.1,407.44,227.87,409.24z"/>
	<path class="st59" d="M241.4,285.09c-0.37-2.92,1.49-1.97,2.91-1.78C244.03,285.1,242.95,285.5,241.4,285.09z"/>
	<path class="st11" d="M251.15,475.22c-0.14-1.74,0.27-3.22,1.82-4.18C252.86,472.66,253.81,474.78,251.15,475.22z"/>
	<path class="st60" d="M666.06,474.04c-0.01,2.49-0.01,4.97-0.02,7.46C664.79,479.01,664.64,476.53,666.06,474.04z"/>
	<path class="st61" d="M217.17,505.14c1.06-2.28,3.04-1.96,4.95-1.87C220.75,504.69,219.11,505.33,217.17,505.14z"/>
	<path class="st62" d="M394.84,311.21c-1.57-0.08-3.57,0.88-4.1-1.76C392.24,309.71,393.67,310.13,394.84,311.21z"/>
	<path class="st63" d="M78.49,499c0.36-2.34,2.16-1.67,3.57-1.82C81.27,498.62,79.98,499.03,78.49,499z"/>
	<path class="st49" d="M644.82,401.43c-0.49,2.58-2.46,1.66-3.98,1.78C641.84,401.84,643.19,401.3,644.82,401.43z"/>
	<path class="st11" d="M259.06,440.86c-1.55-1.05-1.9-1.85-1.73-2.85c0.03-0.15,0.56-0.37,0.73-0.29
		C259.18,438.24,258.67,439.26,259.06,440.86z"/>
	<path class="st11" d="M253.02,439.29c-1.17-1.08-1.8-2.41-1.79-4.04C253.75,435.68,252.87,437.73,253.02,439.29z"/>
	<path class="st47" d="M-8.66,477.57c0.05-1.68-0.92-3.81,1.77-4.36C-6.89,474.92-7.51,476.36-8.66,477.57z"/>
	<path class="st51" d="M247.16,287.28c-1.06,1.08-2.19,2.05-3.79,2.06C243.63,286.69,245.63,287.44,247.16,287.28z"/>
	<path class="st58" d="M223.94,407.27c-1.5-0.17-3.44,0.65-3.89-1.86C221.67,405.32,222.94,406,223.94,407.27z"/>
	<path class="st51" d="M243.38,289.33c-0.71,0.61-1.43,1.23-2.14,1.84l0.03-0.01c-0.59,0.06-1.17,0.12-1.76,0.18
		C239.78,288.62,241.82,289.46,243.38,289.33z"/>
	<path class="st51" d="M239.51,291.34c-1,1.31-2.28,2-3.92,1.91C235.99,290.63,237.96,291.44,239.51,291.34z"/>
	<path class="st64" d="M578.9,484.27c-0.08-1.49-0.05-2.91,1.9-3.05C580.86,482.69,580.08,483.61,578.9,484.27z"/>
	<path class="st3" d="M224.82,301.26c0.96,0.11,1.95,0.18,2.49,1.53c-1.45,0.38-2.38-0.46-3.31-1.26
		C224.21,301.23,224.48,301.14,224.82,301.26z"/>
	<path class="st51" d="M234.4,289.22c1.18-1.04,2.56-1.64,4.1-1.83C237.65,289.22,236.14,289.49,234.4,289.22z"/>
	<path class="st65" d="M510.13,405.37c-0.71,1.17-1.6,1.98-3.06,1.79C507.32,405.17,508.69,405.2,510.13,405.37z"/>
	<path class="st66" d="M678.98,465.13c-1.72,0.02-3.45,0.04-5.17,0.06C675.52,463.97,677.24,463.98,678.98,465.13z"/>
	<path class="st62" d="M401.55,315.24c-1.44,0.09-2.88,0.18-3.05-1.91C400.04,313.09,400.76,314.23,401.55,315.24z"/>
	<path class="st67" d="M679.51,455.32c2.06-0.1,2.21,1.32,2.16,2.89C680.55,457.56,679.73,456.68,679.51,455.32z"/>
	<path class="st68" d="M256.7,248.18c0.6-0.49,1.48-1.25,1.9-0.27c0.46,1.06,0.84,2.54-0.7,3.37
		C257.85,250.1,257.92,248.87,256.7,248.18z"/>
	<path class="st11" d="M263.37,502.69c-0.7,0.15-1.19,0.41-1.49,0.27c-0.29-0.13-0.39-0.69-0.57-1.06c0.28-0.12,0.63-0.4,0.81-0.32
		C262.5,501.78,262.79,502.16,263.37,502.69z"/>
	<path class="st69" d="M514.93,403.37c-0.27,1.97-1.64,1.94-3.08,1.79C512.56,403.99,513.46,403.17,514.93,403.37z"/>
	<path class="st70" d="M315.25,240.89c-1.19-1.69-3.24-1.2-4.73-1.98c-1.62-0.85-5-0.62-4.37-3.2c0.67-2.73,2.98-5.42,6.29-5.1
		c7.1,0.69,14.37,0.05,21.27,2.63c0.72,0.27,1.58,0.15,2.38,0.21c2.64,0.7,6.71,0.05,6.49,4.2c-0.2,3.76-3.78,4.17-6.93,4.83
		c-5.43,1.14-10.79,1.79-16.23,0.43C317.93,242.54,316.13,242.68,315.25,240.89z"/>
	<path class="st71" d="M313.17,261.14c1.43,1.91,3.82,3.68,2.42,6.41c-1.43,2.79-4.16,2.36-6.86,2.15
		c-3.35-0.26-6.75,0.29-10.12,0.16c-2.13-0.09-4.62,0.13-5.49-2.93c-0.83-2.91,0.41-4.78,2.52-6.36c0.65-0.49,1.34-0.92,2.01-1.37
		C303.05,257.92,308.34,257.65,313.17,261.14z"/>
	<path class="st72" d="M289.67,295.42c3.62,3.95,2.79,10.84-1.7,14c-0.34,0.23-0.63,0.16-0.86-0.18c-1.42-1.3-3.25-1.46-4.98-1.92
		l-0.01-0.01c-2.56-3.75-4.77-7.67-5.7-12.22c0,0,0.16-0.22,0.16-0.22l-0.13-0.24c0.47-2.22,2.34-2.51,4-3.09l-0.07,0.06
		c3.13-2.4,5.61-1.53,7.62,1.63C288.15,294.28,288.62,295.09,289.67,295.42z"/>
	<path class="st73" d="M268.5,282c-1.72-0.54-3.07,0.41-4.55,1.08c-3.19,1.44-5.47,1.52-7.83-2.42c-2.41-4.04-1.36-4.9,2.24-5.11
		c4.29-0.25,8.09-3.51,12.7-1.93c1.85,0.63,5.31,0.26,4.54,2.71c-0.71,2.24-1.92,5.89-5.66,5.88
		C269.46,282.21,268.98,282.07,268.5,282z"/>
	<path class="st74" d="M266,243.47c1.5-0.71,3.01-1.42,4.51-2.13c1.99-1.16,4.03-3.12,5.67,0.44c0.35,0.22,0.71,0.44,1.06,0.65
		c4.31,6.26,3.57,7.98-4.73,10.91c-2.04,0.83-4.09,4.18-6.12-0.02c-1.09-1.22-0.2-2.75-0.6-4.08l-0.01-0.03
		c-1.48-0.97,0.02-2.83-1.09-3.9l0,0C264.19,244.01,265.13,243.77,266,243.47z"/>
	<path class="st75" d="M286.16,229.39c1.79-4.63,5.79-6.95,9.59-9.29c1.27-0.78,3.01-3.8,4.89-0.57c1.6,2.76,0.98,5.3-1.66,6.79
		c-2.98,1.67-6.18,2.91-7.25,6.7C286.91,234.75,285.43,233.78,286.16,229.39z"/>
	<path class="st76" d="M281.02,237.32c0.45-0.63,0.89-1.25,1.34-1.88c2.43-1.5,4.07-0.09,5.61,1.63c3.59,1.93,3.72,4.78,0.3,7.15
		c-1.72,1.19-3.49,2.31-5.24,3.46c-3.8-1.18-4.38-4.24-4.25-7.71C278.9,238.53,280.16,238.11,281.02,237.32z"/>
	<path class="st77" d="M358.74,255.33c-1.29-5.54-0.47-6.48,5.63-7.73c3.7-0.76,5.59,0.81,5.86,4.32c0.18,2.34-0.27,4.68-3.81,3.72
		c-1.85-0.51-4.01-0.99-5.76,0.67C359.6,256.84,359.11,256.22,358.74,255.33z"/>
	<path class="st78" d="M303.86,221.51c-0.28-2.8-1.19-5.06,1.52-6.23c3.08-1.33,5.92-3.6,9.38-3.54c1.2,0.02,0.7,1.96,0.7,3.03
		c0,1.95,0.18,3.8-2.38,4.75C310.14,220.61,306.92,219.46,303.86,221.51z"/>
	<path class="st17" d="M315.25,240.89c7.42,2.3,14.87,2.36,22.31,0.13c2.02-0.6,4.41-1.21,4.22-3.96c-0.17-2.51-2.45-2.7-4.38-3.03
		c-0.45-0.08-0.87-0.38-1.31-0.58c2.88-0.17,5.84-0.74,8.1,1.89v0c0.06,1.47-0.13,2.9,1.06,4.18c1.15,1.25-0.07,1.59-1.06,1.82
		c-1.48,0.74-3.29,1.03-3.88,3c0,0,0,0,0,0c-2.45-1.52-5.14-0.92-7.76-0.9c-2.89,2.48-6.66,0.19-9.7,1.9
		c-2.46-1.19-4.93-2.32-7.76-2C315.16,242.52,315.21,241.7,315.25,240.89z"/>
	<path class="st79" d="M320.08,214.66c-0.2-1.81-0.43-3.23,2.08-3.5c2.6-0.28,5.71-1.19,7.14,1.07c0.86,1.36-0.05,4.8-1.26,6.43
		c-1.25,1.68-2.83-2.13-4.54-1.21C319.86,219.4,319.83,217.23,320.08,214.66z"/>
	<path class="st80" d="M287.97,237.07c-1.87-0.54-3.74-1.09-5.61-1.63c-2.52-2.71-2.52-2.71,0.61-9.54c1.74,0.52,0.72,3.78,3.2,3.5
		c-0.51,5.06,2.99,3.58,5.56,3.63c-0.03,0.96,0.08,2.17-1.34,1.93C288.64,234.66,288.15,235.61,287.97,237.07z"/>
	<path class="st81" d="M291.8,205.45c1.87,2.19,2.46,4.86-0.2,6.29c-2.77,1.49-5.72,6.04-9.32,1.02c1.81-2.98,5.62-3.58,7.61-6.45
		C290.35,205.62,290.73,204.73,291.8,205.45z"/>
	<path class="st82" d="M337.29,219.8c-2.07,0-4.3,0.91-3.98-3.2c0.32-4.15,2.81-3.21,4.95-3.25c3.47-0.07,2.32,2.69,2.43,4.64
		C340.86,221.1,339.08,220.46,337.29,219.8z"/>
	<path class="st83" d="M279.18,239.32c0.46,3.19,1.53,6.08,3.84,8.36c-0.86,0.72-1.96,1.28-2.54,2.19
		c-1.95,3.01-4.39,4.56-7.97,3.49c0.5-0.39,0.94-0.93,1.5-1.14c4.2-1.56,6.53-3.78,3.05-8.34c-0.2-0.27,0.1-0.95,0.17-1.43
		c0.34-1.05,0.67-2.11,1.01-3.16C278.57,238.97,278.88,238.97,279.18,239.32z"/>
	<path class="st84" d="M313.17,261.14c-5.08-1.42-10.21-2.47-15.52-1.95c2.34-2.26,4.56-1.73,7.77-1.56
		C308.76,257.8,311.76,257.08,313.17,261.14z"/>
	<path class="st85" d="M287.98,293.23c-2.22-2.13-4.79-2.52-7.62-1.63c0.26-1.49,1.3-2.56,2.57-2.18c2.88,0.86,4.82-0.81,6.97-2.11
		C290.63,289.76,288.54,291.23,287.98,293.23z"/>
	<path class="st80" d="M276.18,241.79c-1.75-2.11-3.81,0.05-5.67-0.44c0.03-1.95-0.36-4.15,2.69-3.99
		C276.1,237.51,276.45,239.41,276.18,241.79z"/>
	<path class="st3" d="M238.5,315.3c-0.94,0.84-3.1-2.75-3.34,1.05c-0.08,1.26-1.53,0.98-2.43,0.81c-2.83-0.54,0.36-2.84-1.01-3.85
		C234.06,313.66,236.92,312.18,238.5,315.3z"/>
	<path class="st3" d="M231.66,320.54c0.98-0.44,1.96-0.88,2.94-1.32c-0.02,1.12-1.95,1.66-1.01,2.98c0.9,1.25,0.27,2.33-0.39,3.06
		c-0.28,0.31-1.73-0.2-2.46-0.66c-1.71-1.08,1.49-1.54,0.44-2.73C231.04,321.72,231.49,321.01,231.66,320.54z"/>
	<path class="st86" d="M265.2,260.42c1.82-0.45,2.91-2.77,4.91-2.02c0.22,0.08,0.34,1.37,0.07,1.77
		C268.75,262.26,266.96,261.01,265.2,260.42z"/>
	<path class="st87" d="M262.67,235.46c1.11,0,1.83,0.48,1.89,1.69c0.07,1.42-0.61,2.14-2,2.07c-1.18-0.05-1.66-0.79-1.65-1.93
		C260.92,236.12,261.52,235.5,262.67,235.46z"/>
	<path class="st3" d="M241.23,291.17c1.16,0.28,2.53,0.71,1.37,2.17c-0.88,1.12-0.66,3.12-2.32,3.41c-0.5,0.09-1.32-0.86-1.76-1.5
		c-0.73-1.07,0.02-1.33,0.94-1.49c1.4-0.24,1.42-1.55,1.79-2.59C241.26,291.17,241.23,291.17,241.23,291.17z"/>
	<path class="st3" d="M233.2,298.01c2.12,3.49-1.97,4.43-2.11,6.83c-0.43-0.08-0.95-0.04-1.28-0.27c-0.65-0.46-0.49-1.07-0.06-1.67
		C230.87,301.34,231.96,299.77,233.2,298.01z"/>
	<path class="st3" d="M237.48,332.1c-1.33,1.49-2.38,2.61-4.18,1.59c-0.26-0.15-0.46-1.03-0.29-1.29
		C234.18,330.65,235.59,331.14,237.48,332.1z"/>
	<path class="st85" d="M280.36,285.98c2.01-0.83,3.56-1,6.27,0.72C283.79,287.27,282.22,287.89,280.36,285.98z"/>
	<path class="st88" d="M335.79,206.07c-1.43,1.62-2.97,1.43-4.88,0.62C332.48,204.51,334.22,205.71,335.79,206.07z"/>
	<path class="st89" d="M291.8,205.45c-0.64,0.29-1.27,0.58-1.91,0.87c-0.63-1.27-2.24-0.64-3.39-1.73
		C288.7,203.73,290.67,201.77,291.8,205.45z"/>
	<path class="st3" d="M317.65,262.56c-0.22-1.57-1.86-3.16-0.04-5.1C318.85,259.44,319.2,261.02,317.65,262.56z"/>
	<path class="st3" d="M317.05,253.33c0.02,1.36,0.17,2.36-1.94,2.36c-2.11,0-1.96-1-1.94-2.36
		C314.46,252.26,315.76,252.26,317.05,253.33z"/>
	<path class="st3" d="M215.1,313.04c-0.48-4.07,1.06-4.91,3.64-5.67C217.56,309.2,216.69,310.56,215.1,313.04z"/>
	<path class="st3" d="M240.77,328.5c-0.27,0.97-1.07,1.28-1.83,1.25c-0.73-0.03-1.74-0.29-1.6-1.33c0.05-0.41,0.91-0.87,1.47-0.99
		C239.63,327.26,240.38,327.63,240.77,328.5z"/>
	<path class="st3" d="M229.02,331.59c-0.72,1.6-1.69,2.55-3.54,1.68c-0.26-0.12-0.48-0.36-0.71-0.55
		C226.22,332.61,226.93,329.92,229.02,331.59z"/>
	<path class="st17" d="M344.2,235.34c0.12-1.06,0.52-1.85,1.7-1.93c1.35-0.09,2.07,0.54,2.18,1.93v0
		C346.79,235.34,345.49,235.34,344.2,235.34L344.2,235.34z"/>
	<path class="st85" d="M280.44,291.55c-1.33,1.03-2.66,2.06-4,3.09c-0.04-1.11-0.08-2.22-0.12-3.33v0
		C277.69,291.39,279.07,291.47,280.44,291.55z"/>
	<path class="st84" d="M317.05,253.33c-1.29,0-2.59,0-3.88,0c0.11-1.38,0.83-2.02,2.18-1.93
		C316.53,251.48,316.93,252.27,317.05,253.33z"/>
	<path class="st17" d="M348.08,235.34c1.59,0.16,2.12,1.11,1.74,2.61c-0.08,0.32-0.73,0.81-0.88,0.73
		C347.5,237.92,348.32,236.48,348.08,235.34L348.08,235.34z"/>
	<path class="st3" d="M221.01,303.28c1.89,0.29,2.6,1.47,2.47,3.74c-1.91-0.74-2.27-2.17-2.46-3.74
		C221.03,303.28,221.01,303.28,221.01,303.28z"/>
	<path class="st3" d="M340.32,244.33c-0.3-3.19,1.8-3.07,3.88-3C343.9,243.7,341.21,242.77,340.32,244.33z"/>
	<path class="st90" d="M250.62,244.51c-0.33,0.7-0.94,0.83-1.57,0.74c-0.6-0.08-1.43-0.13-1.21-1.07c0.17-0.73,0.9-0.83,1.54-0.74
		C249.97,243.51,250.69,243.55,250.62,244.51z"/>
	<path class="st91" d="M257.26,271.25c-0.8,0.01-1.52-0.03-1.68-0.78c-0.2-0.95,0.64-0.97,1.23-1.05c0.64-0.09,1.36,0.03,1.52,0.77
		C258.55,271.17,257.63,271.03,257.26,271.25z"/>
	<path class="st3" d="M293.27,276.4c-0.35,0.77-0.95,0.9-1.59,0.81c-0.59-0.08-1.41-0.14-1.2-1.07c0.17-0.73,0.89-0.81,1.52-0.74
		C292.63,275.47,293.29,275.56,293.27,276.4z"/>
	<path class="st85" d="M276.32,291.31c-1.11-0.25-2.51,0.6-3.25-0.88c-0.07-0.15,0.4-0.82,0.71-0.91
		C275.24,289.12,276.17,289.67,276.32,291.31L276.32,291.31z"/>
	<path class="st80" d="M277.7,234.18c0.06,0.96-0.66,0.98-1.26,1.05c-0.64,0.08-1.36-0.03-1.52-0.77c-0.2-0.94,0.63-0.97,1.23-1.05
		C276.79,233.34,277.4,233.47,277.7,234.18z"/>
	<path class="st3" d="M208.44,316.3c-0.96-0.67-1.92-1.34-2.88-2.01c0.64-0.66,1.28-1.33,1.92-1.99v0
		C207.15,313.8,209.74,314.55,208.44,316.3z"/>
	<path class="st92" d="M265.79,249.26c1.09,1.22,0.46,2.71,0.6,4.08C263.37,252.42,265.2,250.74,265.79,249.26z"/>
	<path class="st3" d="M207.47,312.3c0.86-0.92,1.67-2.11,3.1-1.01c0.17,0.13,0.1,0.96-0.12,1.22
		C209.42,313.73,208.46,312.63,207.47,312.3C207.47,312.3,207.47,312.3,207.47,312.3z"/>
	<path class="st3" d="M239.34,306.64c-0.76,0.41-1.25,0.79-1.8,0.93c-0.57,0.14-0.86-0.42-0.58-0.83c0.31-0.46,0.87-0.81,1.38-1.03
		C238.48,305.65,238.87,306.19,239.34,306.64z"/>
	<path class="st80" d="M279.18,239.32c-0.31-0.02-0.62-0.03-0.93-0.03c-0.41-2.65,1.13-2.38,2.77-1.97
		C280.9,238.47,279.91,238.77,279.18,239.32z"/>
	<path class="st3" d="M358.74,255.33c0.64,0.32,1.28,0.65,1.92,0.97c-0.6,0.92-1.41,1.33-2.29,0.55
		C357.8,256.34,358.18,255.73,358.74,255.33z"/>
	<path class="st3" d="M228.81,309.3c-0.97,0-1.94,0-2.91,0C226.87,306.16,227.84,307.74,228.81,309.3z"/>
	<path class="st3" d="M238.5,317.3c0.32-0.33,0.65-0.67,0.97-1c0.76,0.15,1.94,0.33,1.36,1.34
		C240.22,318.73,239.19,318.19,238.5,317.3z"/>
	<path class="st3" d="M221.82,328.73c-0.74-0.93-1.07-1.21-1.03-1.32c0.31-0.75,0.76-1.4,1.66-1.39c0.07,0,0.26,0.58,0.18,0.82
		C222.44,327.47,222.13,328.05,221.82,328.73z"/>
	<path class="st92" d="M264.69,245.32c1.26,1.04,1.29,2.43,1.09,3.9C263.2,248.59,264.68,246.74,264.69,245.32z"/>
	<path class="st92" d="M266,243.47c-0.44,0.62-0.87,1.24-1.31,1.85c-0.51-0.31-1.49-0.76-1.45-0.91
		C263.69,242.83,264.97,243.48,266,243.47z"/>
	<path class="st75" d="M305.55,300.35c1.61-6.63,4.52-7.42,10.44-2.84c2.07,2.94,1.1,6.08-0.74,8.18c-1.23,1.4-3.91,1.62-6.33,0.8
		C305.71,305.42,305.36,303.16,305.55,300.35z"/>
	<path class="st93" d="M296.03,307.17c-0.43-2.08-1.04-4.07-0.85-6.3c0.2-2.31,0.36-3.97,3.15-4.51c2.81-0.55,4.22,0.4,4.94,3.02
		c0.01,1.13,0.02,2.26,0.03,3.39C303.41,308.55,301.47,309.73,296.03,307.17z"/>
	<path class="st7" d="M306.88,344.6c5.2-2.98,9.2,0.25,13.28-0.53c0.95-0.18,0.69,1.59,0.73,2.52c0.05,1.21-0.15,2.42-1.61,2.58
		c-1.58,0.17-3.4,0.54-4.52-0.9C312.96,345.98,310.49,345.17,306.88,344.6z"/>
	<path class="st1" d="M322.87,245.33c2.57-4.22,6.52-0.98,9.7-1.9C330.38,247.63,327.82,248.13,322.87,245.33z"/>
	<path class="st94" d="M342.26,279.32c-0.31,2.68-2.35,1.81-3.87,2C338.7,278.63,340.74,279.51,342.26,279.32z"/>
	<path class="st19" d="M-16.53,475.22c0.31-0.08,0.62-0.13,0.91-0.25c1.66-0.67,0.65-4.84,3.5-3.4c2.3,1.16-1.16,2.68-0.62,4.48
		c0.41,1.34,0.11,3.21-2.01,3.01C-17.19,478.84-16.3,476.7-16.53,475.22L-16.53,475.22z"/>
	<path class="st19" d="M-28.17,475.23c0.07-1.87,2.21-2.74,2.01-4.88c-0.13-1.44-0.75-3.25,0.85-4.53
		C-23.06,472.03-23.86,474.62-28.17,475.23L-28.17,475.23z"/>
	<path class="st95" d="M10.62,493.22c-2.59,3.22-5.17,3.22-7.75,0c1.29,0,2.59,0,3.88,0c0.65-0.59,1.29-0.59,1.94,0
		C9.33,493.22,9.97,493.22,10.62,493.22z"/>
	<path class="st19" d="M-16.53,475.23c-0.16,0-0.33,0.03-0.48-0.01c-1.74-0.41-4.02,1.08-5.12-1.45c-0.2-0.46,0.23-1.22,0.36-1.84
		C-20.01,473-17.27,472.43-16.53,475.23C-16.53,475.22-16.53,475.23-16.53,475.23z"/>
	<path class="st15" d="M8.68,493.22c-0.65,0-1.29,0-1.94,0c0.19-1.38-0.57-3.17,1.36-3.8c0.52-0.17,1.58-0.01,1.76,0.34
		C10.58,491.21,8.37,491.78,8.68,493.22z"/>
	<path class="st96" d="M-45.6,489.09c-0.25,0.91-0.25,1.82-1.12,1.51c-0.38-0.14-0.67-0.99-0.71-1.54c-0.04-0.59,0.12-1.5,0.99-1.2
		C-46.01,487.99-45.8,488.77-45.6,489.09z"/>
	<path class="st15" d="M-1.01,491.22c0.15-1.64,1.08-2.19,2.53-1.79c0.31,0.08,0.79,0.76,0.71,0.91
		C1.49,491.81,0.09,490.97-1.01,491.22L-1.01,491.22z"/>
	<path class="st97" d="M292.42,461.97c3.26,2.37,7.16,4.16,6.33,9.38c-0.08,0.5,0.54,1.26-0.25,1.55c-0.53,0.2-1.74,0.04-1.75-0.05
		C296.32,468.82,292.68,466.1,292.42,461.97z"/>
	<path class="st98" d="M267.97,495.8c-1.68-2.71-1.5-4.3-0.7-6.3C269.29,491.16,268.47,492.91,267.97,495.8z"/>
	<path class="st99" d="M281.13,495.61c-1.08-2.66-1.25-4.24,0.02-6.32C282.54,491.35,282.33,492.94,281.13,495.61z"/>
	<path class="st100" d="M268.57,405.25c0.02-1.31,0.67-1.96,1.93-2c0.66,0.21,1.84,0.21,1.34,1.25
		C271.18,405.84,269.69,405.05,268.57,405.25z"/>
	<path class="st101" d="M365.4,445.24c1.1,4.99,2.06,10.01,3.37,14.94c0.75,2.81,0.18,4.1-2.73,4.01c-0.8-0.03-1.6,0.07-2.4,0.07
		c-5.9,0.05-6-0.13-4.66-5.98c0.99-4.33,1.88-8.69,2.82-13.04c0.56-0.85,0.25-2.42,1.81-2.41
		C365.15,442.82,364.85,444.39,365.4,445.24z"/>
	<path class="st102" d="M367.48,401.26c1.29,0,2.58,0,3.87,0c0.65,1.33,1.3,2.66,1.94,3.99l0,0
		C370.11,405.85,368.1,404.63,367.48,401.26z"/>
	<path class="st103" d="M365.4,445.24c-1.2-1.92-2.4-1.93-3.61-0.01c-0.08-2.13,0.48-4.08,1.73-6.43
		C364.97,440.98,365.41,443.03,365.4,445.24z"/>
	<path class="st102" d="M357.5,402.26c2.47-1.33,3.98-1.1,6.35-0.25C361.5,403.65,359.97,403.47,357.5,402.26z"/>
	<path class="st20" d="M373.29,407.26c0-0.67,0-1.33,0-2c0,0,0,0,0,0c1.34,0.11,1.96,0.85,1.87,2.24c-0.08,1.22-0.84,1.63-1.87,1.75
		C372.78,408.59,372.71,407.92,373.29,407.26z"/>
	<path class="st102" d="M361.65,397.27c1.53,0.17,3.56-0.7,3.88,1.98C364.01,399.07,361.98,399.94,361.65,397.27z"/>
	<path class="st104" d="M353.83,467.41c-0.16,0.59-0.15,1.51-1.03,1.19c-0.38-0.14-0.67-0.99-0.71-1.54
		c-0.04-0.59,0.1-1.45,1.01-1.23C353.81,466.01,353.85,466.75,353.83,467.41z"/>
	<path class="st102" d="M373.29,407.26c0,0.66,0,1.33,0,1.99c-0.29,0.51-0.5,1.37-0.88,1.46c-0.72,0.16-0.94-0.62-0.99-1.27
		C371.33,408.08,371.98,407.36,373.29,407.26z"/>
	<path class="st105" d="M121.07,422.5c7.81,11.73,9.91,24.93,9.21,38.77c-0.24,4.65-1.44,9.16-3.42,13.4
		c-1.58,3.39-3.64,4.77-7.64,3.62c-4.02-1.16-2.33-3.93-2.17-5.94c1.14-14.39-1.65-28.47-2.92-42.66c-0.19-2.15-0.44-4.29-0.66-6.43
		C114.9,418.75,117.25,418.51,121.07,422.5z"/>
	<path class="st106" d="M121.07,422.5c-2.67-1.23-5.53-4.48-7.6,0.76c-0.74-0.17-1.88-0.23-1.56-1.29c0.83-2.72,3.11-2.76,5.39-2.76
		C119.53,419.21,121.56,419.27,121.07,422.5z"/>
	<path class="st107" d="M101.23,493.74c0.14,0.51,0.42,1.07,0.42,1.63c0,0.6-0.13,1.51-1,1.2c-0.38-0.13-0.65-0.99-0.71-1.54
		C99.89,494.42,100.07,493.72,101.23,493.74z"/>
	<path class="st108" d="M142.63,487.28c-0.13,1.37-0.78,2.3-2.09,2.7C140.51,488.48,140.74,487.2,142.63,487.28z"/>
	<path class="st109" d="M53.85,481.77c0.45-0.13,0.99-0.42,1.54-0.42c0.59,0,1.41,0.11,1.2,1.05c-0.17,0.73-0.89,0.82-1.53,0.74
		C54.46,483.06,53.74,483.02,53.85,481.77z"/>
	<path class="st110" d="M57.08,416.29c-0.55,0.38-0.88,0.78-1.23,0.8c-0.28,0.02-0.58-0.42-0.87-0.65c0.31-0.3,0.59-0.74,0.95-0.84
		C56.19,415.53,56.56,415.95,57.08,416.29z"/>
	<path class="st70" d="M382.98,293.33c3.15,3.39,1.13,5.06-1.79,7.11c-7.79,5.47-8.89,5.33-12.97-3.08
		c-1.02-2.09-2.43-2.94-4.63-1.9c-4.43,1.08-8.86,2.21-13.42,0.67l-0.03-0.02c-0.93-0.21-1.69-0.74-2.51-1.24
		c-4.29-2.61-4.36-4.01-0.19-7.41c3.85-3.29,12.55-4.36,16.54-2.01c1.41,0.83,0.99,2.66,1.84,3.81c3.79,2.34,8.02,0.82,12.02,1.38
		C379.97,290.93,381.99,290.95,382.98,293.33z"/>
	<path class="st111" d="M382.98,293.33c-3.36-3.05-7.47-1.77-11.31-2.07c-2.12-0.16-4.55,0.69-5.84-2.01
		c4.53,0.27,9.05,0.65,13.58,0.76C381.71,290.07,383.38,290.39,382.98,293.33z"/>
	<path class="st112" d="M347.45,287.45c-5.66,5.06,0.88,6.07,2.7,8.65c-0.37,0.4-0.74,0.81-1.11,1.21c-1.9,0.63-1.08-1.54-1.94-1.99
		c-0.97-2.16-5.18,1.47-4.48-2.12C343.03,291.18,343.12,286.85,347.45,287.45z"/>
	<path class="st112" d="M350.19,296.13c4.53,0.93,8.93-0.83,13.42-0.67c-0.44,2.37-2.29,1.66-3.76,1.87
		c-2.73,0.37-5.47-0.57-8.25,1.08C349.75,299.5,350.26,297.21,350.19,296.13z"/>
	<path class="st17" d="M351.22,317.46c2.97-3.33,5.44-1.79,7.84-1.36C356.87,317.84,354.33,317,351.22,317.46z"/>
	<path class="st3" d="M349.6,283.21c-1.97,0.42-3.02,1.44-4.07,0.16c-0.13-0.15,0.2-1,0.51-1.2
		C347.31,281.32,347.91,282.54,349.6,283.21z"/>
	<path class="st17" d="M367.15,318.1c-1.1,1.7-2.44,0.99-3.55,1.2c0.07-0.3,0.08-0.65,0.23-0.91
		C364.66,316.95,365.74,317.16,367.15,318.1z"/>
	<path class="st3" d="M375.85,262.48c0.7,0.12,1.16,0.55,1.17,1.28c0.01,0.72-0.4,1.37-1.11,1.03c-0.46-0.22-0.79-0.97-0.94-1.55
		C374.83,262.67,375.32,262.44,375.85,262.48z"/>
	<path class="st3" d="M347.11,295.33c0.65,0.66,1.29,1.33,1.94,1.99c-0.08,0.82-0.18,1.63-1.31,1.22
		C345.81,297.83,347.35,296.39,347.11,295.33z"/>
	<path class="st9" d="M710.75,429.25c-2.25,0-4.5-0.14-6.74,0.02c-3.55,0.26-3.01-4.7-6.15-5.07c-0.18-0.02,1.08-1.84,1.92-2.41
		c1.18-0.8,2.67-0.76,3.03,0.99c0.37,1.8,1.71,1.95,2.88,2.76c3.55,2.49,3.09-0.09,3.12-2.29c0.95-0.3,1.95-0.71,1.94,1
		C710.74,425.92,710.75,427.58,710.75,429.25z"/>
	<path class="st113" d="M687.53,433.12c2.04,2.66,4.08,5.32,6.12,7.98c-2.47,0.13-3.9-2.14-6.19-2.82
		C684.39,437.37,688.45,434.95,687.53,433.12z"/>
	<path class="st14" d="M682.99,490.91c-1.69-1.16-3.56-1.86-3.01-4.41c0.06-0.3,0.91-0.77,1.02-0.68
		C682.44,487.02,684.33,488.07,682.99,490.91z"/>
	<path class="st114" d="M679.72,471.22c3.13,2.67,3.13,5.33,0,8C679.72,476.55,679.72,473.89,679.72,471.22z"/>
	<path class="st9" d="M708.95,423.8c-1.87-1.45-3.55-1.98-3.19-4.05c0.04-0.2,0.86-0.42,1.28-0.36
		C709.5,419.73,708.55,421.79,708.95,423.8z"/>
	<path class="st113" d="M688.63,427.34c-1.39,1.36-1.17,3.17-1.3,4.89c-0.6-0.99-1.19-1.99-1.79-2.98
		C685.66,427.06,686.57,426.21,688.63,427.34z"/>
	<path class="st113" d="M685.59,429.18c-0.34,1.22,0.56,2.75-1.31,3.66C683.38,431.04,683.32,429.77,685.59,429.18z"/>
	<path class="st115" d="M394.62,413.25c0.64,0.11,1.64,0.39,1.41,0.98c-0.62,1.67-2.18,0.93-3.37,0.92
		c-1.44-0.01-2.01-1.07-1.85-2.36c0.2-1.69-0.99-3.77,0.94-4.97c0.47-0.29,0.83,0.79,0.95,1.45
		C394,410.25,393.29,412.28,394.62,413.25z"/>
	<path class="st116" d="M443.42,416.6c-3.75,1.14-4.61-0.78-5.78-2.69C440.7,412.41,441.39,414.89,443.42,416.6z"/>
	<path class="st117" d="M394.62,413.25c-2.61-0.32-1.75-2.42-1.93-3.98C395.29,409.59,394.44,411.68,394.62,413.25z"/>
	<path class="st118" d="M167.71,479.23c-5.99-7.21-6.59-16.19-7.7-25c1.56-2.5,2.49-5.72,6.22-5.73c2.72-0.96,4.56,0.9,6.58,2.17
		c5.2,1.92,10.54,1.33,15.76,0.54c12.68-1.93,25.35-2.04,38.02-0.27c3.95,0.55,8.03,1.04,11.17,4.1c0.56,3.82-2.32,3.42-4.37,3.5
		c-7.24,0.27-14.49,0.22-21.73,0.07c-7.7-0.15-15.08,3.17-22.88,2.07c-2.99-0.42-6.1,0.21-8.91-1.58c-1.1-0.7-2.52-0.44-3.8-0.4
		c-3.99,0.12-4.76,1.22-3.61,5.12c0.42,1.42,0.36,2.99,1.29,4.23c5.67,11.11,15.91,16.23,26.49,20.12
		c15.41,5.66,25.14-0.76,33.59-12.82c1.03-1.46,1.58-3.28,3.1-4.38c1.09-0.71,2.28-0.84,3.53-0.64c0.48,0.1,0.93,0.28,1.35,0.54
		c0.81,0.59,1.42,1.32,1.59,2.37c-0.01,0.33-0.03,0.66-0.05,0.99c-1.72,4.87-4.95,8.78-7.75,12.97
		c-9.82,10.65-22.28,12.19-35.78,12.31c-13.34,0.11-22.47-6.22-30.15-16.28C168.59,482.1,168.47,480.5,167.71,479.23z"/>
	<path class="st119" d="M231.69,418.26c10.1,7.78,14.49,18.85,17.11,31.04c0.47,2.19-0.33,3.87-0.69,5.77
		c-2.4,2.34-5.2,1.55-7.95,1.08c-2.46-1.19-3.37-3.38-3.66-5.99c-1.66-15.12-11.95-26.61-26.54-29.07
		c-6.51-1.1-13.13-0.92-19.7,0.19c-11.16,1.89-16.31,9.6-18.57,20.12c-0.56,2.62-0.67,5.37-3.74,6.37
		c-0.79,0.17-1.52,0.03-2.15-0.51c-1.92-0.6-5.02,1.43-5.59-1.84c-0.34-1.94-1.84-5.04,1.69-6.2c0.87-0.01,2.11,0.43,1.75-1.28
		c-0.34-1.6-0.62-3.17,0.18-4.71c0.12-1.6,0.72-2.96,1.92-4c1.01-0.74,1.23-2.04,1.97-2.97l-0.02-0.02c0.82-0.88,0.97-2.23,2-2.95
		c2.41-0.32,2.62-3.41,4.78-4.05c3.22-1.03,6.08-2.95,7.9-5.67c1.11-1.66,2.57-1.45,3.76-2.27c6.36-1.75,12.81-2.18,19.39-2.11
		c5.87,0.06,11.21,1.83,16.49,4.09C224.55,416.36,228,417.55,231.69,418.26z"/>
	<path class="st120" d="M239.51,455.2c2.87-0.04,5.74-0.08,8.6-0.12c2.13,2.42,0.02,4.21-0.87,6.18c-3.32,0.53-4.86,2.47-4.67,5.97
		c0.08,1.41,0.09,2.93-1.16,3.99c-1.29,0-2.58,0-3.87,0c-1.37-1.94-0.25-3.85,0.12-5.73c0.62-3.15-0.48-5.34-3.62-4.69
		c-11.31,2.33-22.76-1.68-34.13,1.33c-5.87,1.56-12.17,0.79-18.27-0.18c-6.09-0.97-6.1-0.9-7.02,5.11
		c-0.13,0.83-0.44,1.59-1.08,2.16c-2.57-2.69-4.32-6.53-2.95-9.53c1.88-4.13,6.52-2.94,9.96-1.94c7.69,2.25,15.21,2.43,22.83-0.07
		c1.34-0.44,2.84-0.44,4.27-0.45c8.54-0.04,17.09,0.02,25.63-0.05c1.6-0.01,3.76,0.83,4.24-1.95
		C238.17,454.59,238.84,454.68,239.51,455.2z"/>
	<path class="st121" d="M241.41,471.23c0.01-2.44,0.16-4.89-0.02-7.31c-0.24-3.24,2.87-2.42,4.16-3.81c1.09-1.18,1.46,0.2,1.69,1.15
		c0.86,3.07-2.29,5.05-2.04,7.95C244.02,470.04,243.78,472.76,241.41,471.23L241.41,471.23z"/>
	<path class="st122" d="M186.14,411.29c-1.71,2.12-3.54,4.08-5.58,5.92c-1.9,1.72-3.78,2.22-6.08,2.02
		C178.28,416.45,180.19,410.73,186.14,411.29z"/>
	<path class="st123" d="M235.59,487.19c0.48-2.7,1.8-4.88,3.68-6.81c0.69-0.71,2.24-1.44,1.33-2.81c-3.21-4.8,0.93-3.03,2.74-3.35
		C242.91,479.92,239.72,483.85,235.59,487.19z"/>
	<path class="st124" d="M231.69,418.26c-0.92,0.83-1.84,1.66-3.12,2.82c-0.42-2.02-0.58-4.31-3.39-3.86
		c-3.03,0.49-3.32-1.6-3.16-3.95c0.64,0,1.28,0.01,1.92,0.01c1.09,1.1,2.89,0.7,3.91,1.95C229.68,415.49,230.5,417.13,231.69,418.26
		z"/>
	<path class="st125" d="M163.83,433.23c-0.02,1.65,0.03,3.2,1.33,4.52c0.86,0.87,0.9,2.36-0.19,3.02c-1.45,0.88-2.8,0.54-3.08-1.55
		C161.98,437.03,162.43,434.97,163.83,433.23z"/>
	<path class="st126" d="M214.93,500.27c2.16-1.3,4.31-1.38,7.45-0.07C219.3,501.61,217.12,501.32,214.93,500.27z"/>
	<path class="st127" d="M165.78,449.23c-2.87,0.5-3.51,3.75-5.77,4.99c0.61-3.34,1.19-6.71,5.76-6.01c0.25,0.22,0.33,0.45,0.25,0.67
		C165.94,449.12,165.86,449.23,165.78,449.23z"/>
	<path class="st128" d="M165.78,449.23c0-0.34,0-0.67-0.01-1.01c0-0.32,0.01-0.64,0.02-0.96c0.62-0.02,1.24-0.05,1.86-0.07
		c3.24-0.65,4.78,0.46,3.94,4.04C169.87,449.9,168.07,448.81,165.78,449.23z"/>
	<path class="st123" d="M241.41,471.23c1.26-0.67,2.53-1.34,3.79-2.01c-0.03,1.62-0.59,2.98-1.81,4.03
		C242.45,472.86,241.79,472.2,241.41,471.23z"/>
	<path class="st129" d="M227.85,415.23c-1.67,0.13-3.14-0.17-3.91-1.95C225.47,413.44,227.48,412.57,227.85,415.23z"/>
	<path class="st130" d="M167.71,479.23c1.27,1.01,1.79,2.4,1.95,3.99C167.89,482.47,167.62,480.94,167.71,479.23z"/>
	<path class="st131" d="M247.28,428.19c1.15,0.69,1.95,1.6,1.84,3.08C247.19,431.08,247.2,429.66,247.28,428.19z"/>
	<path class="st132" d="M169.7,423.29c-0.07,1.41-0.71,2.42-2,2.95C167.71,424.77,167.7,423.3,169.7,423.29z"/>
	<path class="st133" d="M167.72,426.26c0,1.45,0.02,2.92-1.97,2.97C165.78,427.79,166.44,426.8,167.72,426.26z"/>
	<path class="st118" d="M501.24,485.25c-2.96-1.89-6.04-3.7-5.78-8.05c0.57-2.17,2.31-2.97,4.11-3.69c1.49-0.39,2.77,0.21,4.07,0.87
		c6.82,3.46,6.83,3.44,12.25-1.75c1.19-0.6,1.79-1.66,2.07-2.96c0.76-2.24,2.28-3.84,4.09-5.2c2.74-1.8,5.14-3.86,5.59-7.48
		c0.4-1.13,1.16-1.95,2.11-2.6c2.72-2.95,6.33-5.16,7.39-9.5c1.87-3.78,4.66-6.58,8.35-8.45c3.67-0.24,5.52-3.21,7.77-5.56
		c1.56-1.38,2.77-3.16,4.56-4.29c1.19-0.47,2.36-0.48,3.48,0.21c0.57,0.53,0.73,1.19,0.61,1.94c-1.37,0.65-1.03,2.49-2.14,3.33
		c-2.38,1.9-4.88,3.71-5.22,7.19c-0.56,1.87-1.89,3.16-3.14,4.51c-2.1,3.1-6.45,3.92-7.61,7.98c-5.1,6.6-8.49,14.52-14.72,20.25
		c-2.44,1.64-4.31,3.88-6.21,6.11c-3.92,4.71-3.77,5.44,1.6,8.12c4.34,2.17,8.79,3.17,13.59,1.77c10.3-3.01,20.28-6.48,28.12-14.68
		c3.01-3.14,4.59-6.55,5.59-10.71c2.33-9.8,0.12-18.75-3.98-27.48c-0.56-1.19-1.38-2.28-1.21-3.7c0.5-1.07,0.75-1.95-0.73-2.58
		c-1.57-0.66-3.75-1.4-2.5-3.8c1.24-2.37,3.2-3.74,5.91-1.84c3.5,1.79,3.71,5.93,5.85,8.68c7.34,9.41,7.5,20.18,5.7,31.34
		c-0.88,2.88-2.54,5.36-3.85,8.02c-2.83,7.13-6.16,13.39-12.26,18.8c-5.82,5.15-11.38,9.31-18.85,10.66
		c-1.89,0.34-3.84,0.36-5.75,0.53c-2.59,0.94-5.18,1.67-7.77-0.01c-6.69-1.39-13.6-1.98-19.6-5.9c-0.88-0.57-1.62-0.96-1.74-2.08
		c-1.17-0.94-2.91-0.7-3.9-2.01c-1.24-0.05-1.88-0.72-1.93-1.99C505.33,486.38,502.72,486.4,501.24,485.25z"/>
	<path class="st134" d="M499.4,474.25c-1.31,0.99-2.62,1.97-3.93,2.96c-5.85-2.23-5.33-8.98-8.66-12.99
		c0.38-2.69-0.44-5.39,1.01-8.15c0.84-1.59-1.78,0.69-2.06-0.82c-1.78-3.97,0.58-7.78,0.45-11.7c-0.05-1.42,0.37-2.86,0.58-4.29
		c2.9-9.28,10.26-15.17,16.03-22.26c1.64-2.02,3.53-3.82,5.3-5.72c14.1-6.38,28.47-7.38,43.16-2.32c0.74,0.26,1.58,0.23,2.37,0.33
		c0.74,1.03,1.71,1.7,2.95,1.93c0.96,0.03,1.91,0.06,2.86,0.09c0.06,1.28,0.72,1.92,1.95,1.95c3.11,1.72,4.41,4.37,3.85,7.97
		c0.22,2.9-2.47,3.23-3.9,4.67c-3.99,1.27-6.75-1.02-9.44-3.49c-1.08-1.04-2.31-1.86-3.72-2.39c-0.38-0.18-0.73-0.4-1.07-0.65
		c-1.25-1.07-2.74-0.88-4.21-0.85c-2.75,0.08-5.51,0.31-8.22,0.01c-9.27-1.01-16.7,2.51-22.75,9.5c-4.58,5.29-9.74,9.96-12.89,16.61
		c-3.66,7.75-1.58,14.87,0.56,22.2C500.38,469.36,501.77,471.86,499.4,474.25z"/>
	<path class="st135" d="M561.37,425.18c1.3-1.32,2.6-2.64,3.9-3.95c3.17-3.26,3.34-0.15,3.98,1.99c-2.46-0.2-4.38,0.55-5.31,3.1
		c0.82,1.9,6.08,0.57,3.3,4.93c-2.24,0.25-3.83-1.49-5.82-2.01c0-0.67,0-1.33-0.01-2C560.84,426.56,560.84,425.88,561.37,425.18z"/>
	<path class="st136" d="M485.76,455.25c2.33,0.08,1.52-2.57,3.41-3.9c1.02,4.95-1.88,8.73-2.36,12.87
		c-1.01-1.52-1.08-3.23-1.03-4.98C485.77,457.91,485.76,456.58,485.76,455.25z"/>
	<path class="st137" d="M501.24,485.25c0.62-0.01,1.25,0.02,1.86-0.04c3.89-0.37,4.52,0.99,2.04,4.04
		C503.15,488.64,501.86,487.3,501.24,485.25z"/>
	<path class="st138" d="M576.95,471.25c-0.49-3.58,2.31-5.48,3.85-8.02C580.96,466.64,579.78,469.37,576.95,471.25z"/>
	<path class="st139" d="M532.32,501.23c2.59,0,5.18,0,7.77,0.01C537.49,503.1,534.9,505.12,532.32,501.23z"/>
	<path class="st140" d="M507.07,491.25c1.57,0.11,2.94,0.65,3.9,2.01C509.45,493.05,507.45,493.82,507.07,491.25z"/>
	<path class="st3" d="M282.13,307.32c-1.08,2.26-2.24,1.48-4.05-0.23c1.77,0.1,2.9,0.16,4.04,0.22
		C282.12,307.31,282.13,307.32,282.13,307.32z"/>
	<path class="st3" d="M287.11,309.24c0.33-0.15,0.61-0.09,0.86,0.18c0.03,0.55,0.29,1.33,0.04,1.6c-0.42,0.45-1.18,0.28-1.52-0.33
		C286.12,310.03,286.57,309.57,287.11,309.24z"/>
	<path class="st141" d="M556.59,411.22c-0.71,0.5-1.65,1.59-2.1,1.4c-1.45-0.6-0.6-2.18-0.85-3.34
		C555.07,409.23,555.99,409.97,556.59,411.22z"/>
	<path class="st142" d="M365.53,322.3c-1.41,1.72-3.12,0.7-4.77,0C362.35,322.3,363.94,322.3,365.53,322.3
		C365.53,322.3,365.53,322.3,365.53,322.3z"/>
	<path class="st143" d="M171.59,451.24c-0.27-2.43-1.64-3.71-3.94-4.04c1.35-1.11,2.31-2.07,2.41-4.31
		c0.35-7.71,4.56-13.66,9.6-18.9c2.85-2.96,6.96-3.44,10.75-3.94c9.76-1.28,19.53-2.11,28.81,2.72
		c8.61,4.47,14.61,11.37,18.07,20.53c1.42,3.76-0.76,8.36,2.21,11.91c-0.66,0.02-1.32,0.03-1.99,0.05
		c-16.18-5.18-32.57-4.86-49.14-2.4c-4.91,0.73-9.98,0.27-14.98,0.31C172.22,453.18,171.76,452.32,171.59,451.24z"/>
	<path class="st144" d="M173.54,469.23c0-0.83,0.03-1.67-0.01-2.5c-0.31-6.99-0.28-7.28,6.36-6.43c8.85,1.13,17.54,1.62,26.31-0.86
		c2.84-0.8,6.27-0.7,9.12,0.12c6.2,1.79,12.16-0.36,18.22-0.33c6.41,0.04,7.13,1.07,5.19,7.69c-0.42,1.43-0.79,2.87-1.18,4.3
		c-3.43,7.09-8.33,12.71-14.9,16.96c-6.4,4.14-13.27,3.7-20.02,2.36c-8.32-1.65-14.9-7.43-22.18-11.48
		C176.86,477.07,175.65,472.67,173.54,469.23z"/>
	<path class="st143" d="M561.37,425.18c0.01,0.68,0.03,1.36,0.04,2.05c-1.29,0.01-2.58,0.03-3.87,0.04
		c-1.06,1.43-2.69,2.19-3.89,3.45c-2.3,2.54-5.34,4.13-7.77,6.51c-3.14,2.09-5.8,4.68-7.74,8c-2.6,3.32-5.2,6.64-7.77,9.99
		c-0.64,0.67-1.29,1.34-1.93,2.01c-1.33,3.14-3.94,5.29-5.83,7.99c-1.47,1.52-3.11,2.9-3.87,5.01c-0.79,0.9-0.97,2.22-1.94,3
		c-6.19,6.46-6.21,6.49-14.25,1.81c-1.03-0.6-2.04-0.81-3.16-0.78c1.42-4.57-1.25-8.54-2.51-12.35c-3.24-9.76-0.17-17.62,5.33-24.9
		c3.81-5.04,8.04-9.92,12.81-13.97c4.68-3.98,10.24-6.65,16.85-5.88c3.98,0.46,8.06,0.12,12.09,0.15c1.24,0.78,2.9,0.64,3.91,1.92
		l0.01-0.01c0.94,1.37,2.76,0.96,3.85,2.03C554.9,422.66,557.16,426.45,561.37,425.18z"/>
	<path class="st144" d="M561.42,429.23c2.57-1.26,4.05,0.82,5.82,2.01c5.37,10.07,8.4,20.53,5.82,32.21
		c-2.39,10.84-10.75,15.88-19.09,20.24c-5.3,2.78-11.24,4.73-17.31,5.99c-6.93,1.44-12.15-2.05-17.66-5
		c-1.57-0.84-1.52-2.52-0.31-3.82c1.22-1.31,2.62-2.44,3.94-3.65c3.12-0.77,4.38-3.47,5.82-5.98c3.62-4.35,7.3-8.62,9.86-13.82
		c1.13-2.29,3.1-4.14,4.69-6.19c2.03-3.24,6.22-4.25,7.75-8c0.97-1.34,1.94-2.67,2.91-4.01c1.6-2.93,3.8-5.39,5.85-7.97
		C560.36,430.8,559.65,428.78,561.42,429.23z"/>
	<path class="st145" d="M545.88,437.23c1.45-3.68,4.68-5.26,7.77-7c0.25,0.22,0.33,0.45,0.25,0.67c-0.08,0.23-0.16,0.34-0.24,0.34
		C552.45,435.15,549.57,436.75,545.88,437.23z"/>
	<path class="st146" d="M530.37,455.22c1.94-3.87,4.03-7.61,7.77-9.99C537.39,450.09,533.42,452.27,530.37,455.22z"/>
	<path class="st147" d="M528.45,471.24c0.03,4.03-0.97,7-5.82,5.98C524.03,474.68,525.97,472.67,528.45,471.24z"/>
	<path class="st135" d="M559.5,431.26c-1.11,3.31-2.89,6.1-5.85,7.97C553.45,434.89,556.4,433.02,559.5,431.26z"/>
	<path class="st148" d="M550.75,443.24c-0.53,4.78-4.73,5.78-7.75,8C543.51,446.44,548.51,446.26,550.75,443.24z"/>
	<path class="st149" d="M522.61,465.22c0.69-3.63,3.27-5.8,5.83-7.99C528.69,461.59,525.69,463.43,522.61,465.22z"/>
	<path class="st135" d="M553.66,431.25c0-0.34-0.01-0.68-0.01-1.01c0.73-1.78,2.45-2.17,3.88-2.96
		C556.99,429.37,555.7,430.7,553.66,431.25z"/>
	<path class="st150" d="M516.8,473.22c0-1.44,0.66-2.43,1.94-3C518.76,471.68,518.78,473.14,516.8,473.22z"/>
	<path class="st151" d="M551.73,421.24c-1.53-0.18-3.59,0.71-3.85-2.03C549.53,419.14,550.99,419.47,551.73,421.24z"/>
	<path class="st152" d="M547.87,419.22c-1.56-0.09-2.88-0.68-3.91-1.92C545.51,417.4,547.48,416.61,547.87,419.22z"/>
</g>
</svg>
